<?xml version="1.0" standalone="no"?>
<!DOCTYPE svg PUBLIC "-//W3C//DTD SVG 20010904//EN"
 "http://www.w3.org/TR/2001/REC-SVG-20010904/DTD/svg10.dtd">
<svg version="1.0" xmlns="http://www.w3.org/2000/svg"
 width="4096.000000pt" height="2048.000000pt" viewBox="0 0 4096.000000 2048.000000"
 preserveAspectRatio="xMidYMid meet">

<g transform="translate(0.000000,2048.000000) scale(0.100000,-0.100000)"
fill="#000000" stroke="none">
<path d="M0 10240 l0 -10240 20480 0 20480 0 0 10240 0 10240 -20480 0 -20480
0 0 -10240z m19395 9345 c197 -17 436 -55 574 -90 201 -51 462 -150 684 -261
207 -103 289 -153 619 -375 l57 -39 73 29 c40 15 123 49 183 74 543 225 1286
278 1925 137 369 -81 720 -250 1030 -497 90 -71 235 -214 725 -714 308 -314
436 -433 581 -542 272 -204 731 -429 971 -475 120 -23 158 -12 351 105 86 52
161 99 166 103 5 5 10 157 11 337 1 318 2 331 28 435 123 501 450 832 945 957
175 45 476 53 634 17 l66 -15 99 55 c184 102 338 154 532 179 358 48 706 -96
1021 -421 235 -242 376 -445 634 -911 65 -117 122 -213 127 -213 5 0 9 20 9
44 0 78 47 298 97 461 54 172 158 390 260 543 319 481 797 754 1385 791 693
44 1327 -242 1822 -820 215 -251 350 -488 484 -854 109 -297 210 -756 222
-1008 0 -4 60 -74 133 -155 164 -182 231 -265 328 -412 278 -419 485 -969 540
-1435 17 -140 17 -511 1 -635 -61 -469 -227 -956 -460 -1348 -119 -200 -292
-412 -513 -627 -258 -251 -467 -386 -859 -550 -74 -31 -139 -60 -144 -65 -9
-9 -8 -15 89 -375 112 -418 167 -565 297 -785 194 -330 280 -583 309 -910 13
-151 7 -548 -11 -670 -56 -388 -143 -589 -395 -915 -98 -128 -128 -187 -269
-544 -148 -374 -187 -463 -302 -693 -232 -466 -509 -877 -888 -1318 -218 -253
-786 -809 -1141 -1116 l-58 -50 27 -50 c43 -79 149 -205 212 -253 85 -64 216
-123 436 -197 297 -100 479 -200 660 -364 139 -125 275 -349 348 -569 129
-393 101 -677 -95 -971 -184 -277 -498 -486 -871 -581 -144 -36 -266 -49 -470
-49 l-166 0 -102 -64 c-274 -172 -550 -285 -856 -350 -181 -39 -265 -47 -565
-56 -296 -9 -294 -8 -660 -84 -409 -84 -1026 -144 -1380 -133 -526 16 -782
150 -958 502 -54 108 -83 198 -147 454 -54 211 -88 297 -145 360 -40 44 -124
106 -220 163 -33 19 -136 80 -230 135 -239 141 -217 137 -378 81 -72 -25 -269
-96 -437 -157 -554 -204 -1016 -352 -1445 -461 -1352 -346 -2388 -486 -3440
-466 -490 9 -735 27 -1125 82 -264 37 -322 39 -525 18 -147 -16 -258 -19 -600
-18 -384 0 -442 2 -678 27 -787 83 -1520 223 -2242 428 -600 171 -976 315
-1644 628 l-187 88 -33 -72 c-122 -272 -313 -441 -601 -533 -204 -65 -322 -83
-1010 -152 -278 -28 -593 -61 -700 -75 -325 -40 -1056 -133 -1380 -176 -168
-22 -438 -58 -600 -79 -341 -45 -633 -78 -1020 -115 -234 -23 -317 -36 -555
-86 -486 -102 -748 -144 -798 -126 -20 6 -35 6 -50 -2 -63 -32 -318 -71 -469
-71 -192 0 -359 35 -515 110 -114 54 -193 110 -295 208 -141 136 -221 276
-299 524 -44 141 -53 158 -76 158 -35 0 -148 66 -206 120 -121 113 -202 295
-251 562 -37 199 -49 351 -43 533 6 189 25 279 99 463 57 141 62 167 83 392
40 413 151 690 370 918 167 175 347 269 615 323 30 6 134 14 230 18 162 7 179
9 227 34 128 66 386 110 1128 192 337 37 1018 105 1267 126 l147 13 -17 22
c-9 12 -59 68 -110 125 -439 489 -662 1143 -662 1940 0 461 57 704 263 1124
l78 159 -17 39 c-12 25 -67 85 -153 166 -355 330 -434 417 -529 584 -129 225
-193 483 -179 721 17 300 132 621 325 906 307 454 750 821 1240 1026 l93 38
-50 22 c-348 154 -528 511 -628 1244 -23 171 -22 463 1 585 46 236 177 404
401 511 114 55 185 74 307 81 168 10 315 -26 493 -120 l83 -45 6 62 c11 97 74
456 112 634 80 374 221 773 369 1042 95 173 256 357 394 450 80 54 217 118
436 205 342 136 581 199 1050 280 521 89 822 113 1000 79 44 -9 88 -16 98 -17
15 -2 25 18 53 116 100 346 336 615 718 817 157 83 341 138 763 225 13 3 36
28 59 68 79 131 236 357 301 433 121 139 305 260 483 316 66 20 95 23 235 23
158 0 161 0 265 -36 l105 -37 47 19 c26 10 92 41 147 69 378 189 832 306 1356
349 170 14 530 12 710 -4z m-5003 -677 c140 -64 209 -192 187 -346 -17 -118
-92 -215 -209 -271 -47 -22 -68 -26 -150 -26 -85 0 -100 3 -141 27 -61 36
-125 108 -156 174 -77 169 44 393 250 460 59 20 153 12 219 -18z m11481 -68
c103 -39 171 -141 171 -260 0 -111 -70 -212 -171 -250 -107 -40 -197 -18 -284
69 -90 90 -114 203 -65 306 62 131 208 187 349 135z m-12216 -630 c44 -27 61
-86 37 -135 -22 -46 -74 -79 -114 -70 -39 9 -80 58 -80 97 0 41 33 92 73 112
41 20 46 20 84 -4z m-921 -410 c23 -10 59 -34 82 -54 171 -155 54 -456 -178
-456 -72 0 -114 16 -167 63 -128 116 -122 320 13 423 73 56 158 64 250 24z
m-2709 -2541 c115 -56 123 -233 13 -305 -115 -76 -262 -12 -277 121 -17 150
126 251 264 184z m-235 -486 c27 -32 29 -52 7 -74 -31 -31 -71 -22 -81 20 -15
56 38 95 74 54z m-1917 -3043 c36 -23 62 -56 65 -86 7 -63 -1 -86 -44 -132
-40 -42 -49 -47 -86 -46 -106 3 -175 130 -119 220 39 64 121 83 184 44z
m26935 -6352 c43 -29 55 -70 33 -116 -42 -88 -144 -85 -188 5 -14 29 -14 36
-1 62 21 40 63 71 96 71 15 0 42 -10 60 -22z m97 -798 c48 -21 83 -70 83 -113
0 -68 -63 -137 -124 -137 -58 0 -119 55 -132 118 -9 45 25 114 67 135 43 21
55 21 106 -3z"/>
<path d="M18685 19073 c-457 -37 -823 -123 -1110 -263 -217 -105 -410 -276
-410 -362 0 -48 -17 -36 -32 22 -44 175 -129 256 -277 267 -137 10 -256 -35
-340 -128 -75 -83 -90 -136 -90 -321 -1 -141 -3 -158 -18 -158 -9 0 -31 19
-48 43 -40 56 -83 81 -141 81 -85 0 -129 -46 -291 -302 -109 -173 -121 -183
-184 -170 -26 6 -125 8 -228 5 -250 -7 -358 -37 -520 -146 -198 -134 -319
-296 -390 -521 -55 -173 -62 -336 -22 -527 30 -142 99 -280 243 -483 40 -58
87 -132 103 -165 28 -57 38 -94 89 -321 20 -90 56 -184 69 -184 4 0 8 57 9
128 3 175 28 300 47 235 3 -10 10 -54 16 -98 6 -44 15 -93 20 -110 5 -16 16
-91 24 -165 11 -101 29 -184 71 -330 88 -306 178 -698 209 -905 18 -122 40
-364 61 -665 20 -291 39 -428 81 -570 85 -282 217 -458 381 -506 52 -15 54
-15 105 12 29 14 69 35 88 44 19 10 36 26 38 37 2 11 -18 45 -48 82 -27 35
-50 70 -50 78 0 24 44 8 117 -42 35 -24 80 -47 99 -51 79 -15 243 22 298 68
58 48 49 95 -44 213 -62 79 -113 155 -108 161 2 2 19 -1 37 -6 18 -5 67 -9
109 -9 43 0 104 0 138 -1 104 -2 251 67 307 143 13 17 32 54 42 81 18 51 69
116 89 116 39 0 96 -102 161 -284 24 -67 59 -159 78 -206 51 -123 61 -184 61
-365 0 -186 -21 -314 -85 -510 -46 -144 -57 -162 -87 -146 -67 36 -205 -21
-313 -128 -36 -36 -98 -113 -139 -171 -40 -58 -113 -157 -161 -220 -319 -420
-480 -859 -545 -1490 -20 -196 -15 -525 10 -740 41 -340 150 -814 351 -1525
137 -482 211 -679 388 -1028 127 -249 163 -345 217 -562 60 -242 64 -413 15
-665 -37 -192 -45 -241 -54 -365 -7 -87 -17 -136 -50 -235 -32 -96 -46 -162
-62 -280 -10 -85 -28 -209 -39 -275 -32 -193 -40 -289 -40 -475 0 -590 131
-1077 398 -1476 149 -222 332 -390 539 -493 212 -106 457 -164 838 -200 61 -6
164 -16 230 -22 213 -21 624 -14 938 15 760 71 759 70 1858 834 471 328 612
441 1029 827 233 215 708 687 956 949 224 236 327 329 557 502 182 137 286
220 407 325 82 71 220 172 227 166 2 -3 11 -31 19 -64 34 -129 129 -436 176
-568 59 -164 213 -485 288 -600 156 -239 401 -487 740 -751 430 -335 523 -394
1380 -867 262 -144 414 -235 458 -272 69 -60 121 -184 276 -662 47 -145 97
-286 111 -313 57 -113 165 -181 315 -200 111 -13 671 -13 780 0 110 14 246 44
296 65 96 40 476 84 1084 125 408 28 557 47 740 96 246 66 458 192 561 333 21
28 36 40 48 36 9 -3 138 -5 286 -6 297 -1 348 5 513 62 91 32 239 107 332 167
30 20 92 73 137 118 63 64 91 101 123 167 71 143 65 244 -26 465 -79 191 -177
323 -302 406 -126 83 -230 119 -467 161 -168 29 -233 48 -267 74 -29 23 -193
118 -275 160 -39 19 -68 42 -77 59 -8 15 -27 36 -43 48 -15 12 -72 57 -124
101 -73 61 -106 82 -137 86 -60 10 -67 24 -48 100 31 123 15 282 -39 372 -29
49 -110 131 -150 152 -53 28 -213 6 -517 -72 -33 -9 -37 -1 -117 212 -285 762
-535 1319 -866 1923 -199 363 -257 464 -444 760 -185 294 -259 394 -541 726
-80 94 -194 230 -254 303 -120 146 -301 334 -384 399 -36 28 -66 43 -97 48
-46 6 -67 21 -43 28 7 3 69 20 138 39 193 54 354 102 600 178 124 38 246 76
271 84 25 8 169 46 320 84 270 69 331 85 804 216 355 98 450 117 585 119 l115
1 87 -43 c210 -105 328 -279 464 -686 72 -212 102 -404 111 -697 5 -167 4
-186 -11 -186 -9 0 -16 9 -17 21 -9 334 -50 594 -131 825 -68 194 -157 369
-179 355 -5 -3 -8 0 -7 8 2 8 -7 13 -27 13 -17 0 -30 6 -31 13 -1 6 -2 17 -3
23 -1 8 -6 8 -16 -1 -13 -10 -15 -9 -15 8 0 11 -6 27 -13 34 -8 7 -12 18 -10
25 3 7 -3 9 -16 6 -25 -6 -27 -19 -5 -27 13 -5 14 -9 4 -21 -10 -12 -9 -15 5
-15 10 0 15 -3 12 -7 -4 -3 0 -15 10 -25 15 -17 15 -18 -5 -18 -12 0 -21 3
-21 8 4 22 -3 29 -26 24 -14 -2 -25 -9 -25 -14 0 -6 -11 -7 -26 -4 -18 5 -32
2 -45 -10 -11 -9 -19 -12 -19 -6 0 6 5 12 12 14 7 3 6 7 -5 11 -9 3 -17 2 -17
-4 0 -6 -4 -8 -9 -5 -5 3 -12 -1 -15 -10 -6 -14 -9 -14 -26 6 -19 22 -25 17
-21 -15 1 -5 -6 -1 -14 9 -8 11 -15 15 -15 10 0 -5 -9 -10 -19 -10 -14 0 -17
4 -11 16 6 12 2 15 -20 15 -17 0 -26 -5 -23 -12 2 -6 -4 -13 -14 -16 -13 -3
-9 -6 14 -12 29 -7 32 -10 26 -34 -8 -36 -13 -39 -13 -8 0 15 -4 27 -9 27 -4
0 -7 -11 -6 -25 3 -26 -8 -40 -25 -30 -6 4 -4 17 5 35 l15 28 -44 0 c-34 -1
-43 -5 -39 -15 3 -8 12 -12 20 -9 25 10 33 -3 21 -32 -7 -15 -12 -28 -13 -28
0 -1 -10 -5 -22 -8 -18 -6 -22 -4 -17 8 5 12 2 15 -10 10 -9 -3 -16 -11 -16
-16 0 -6 -6 -8 -13 -5 -7 3 -19 -4 -25 -14 -14 -22 -2 -25 29 -9 15 9 19 7 19
-7 0 -19 -56 -57 -71 -47 -5 3 -9 1 -9 -5 0 -5 6 -12 13 -15 8 -3 7 -8 -5 -16
-10 -6 -18 -18 -18 -25 0 -8 -4 -15 -9 -15 -14 0 -23 32 -11 44 7 7 10 6 10
-3 0 -7 5 -9 10 -6 7 4 7 12 1 23 -11 20 -58 24 -65 5 -3 -7 1 -10 10 -6 22 8
17 -17 -8 -37 -17 -13 -26 -15 -36 -7 -10 8 -14 5 -18 -11 -4 -12 -11 -19 -20
-15 -17 6 -18 -8 -1 -26 8 -10 8 -12 0 -7 -6 3 -16 -2 -22 -11 -9 -16 -12 -16
-21 -3 -13 20 -13 4 0 -21 9 -16 7 -19 -10 -19 -11 0 -20 5 -20 10 0 14 -16
12 -33 -5 -8 -8 -16 -12 -19 -10 -6 7 -93 -16 -103 -27 -7 -7 -7 -9 1 -5 6 3
22 0 37 -8 14 -7 28 -11 30 -9 3 3 7 -2 10 -11 7 -18 -6 -19 -34 -4 -19 10
-19 9 -9 -10 13 -24 28 -26 54 -6 13 10 24 11 36 5 10 -5 20 -6 24 -3 3 3 6 1
6 -5 0 -7 -14 -12 -31 -12 -27 0 -30 -2 -19 -15 7 -8 16 -12 21 -9 5 3 6 -2 3
-10 -4 -11 -11 -13 -21 -7 -18 9 -51 4 -72 -13 -12 -9 -13 -8 -8 7 4 12 1 20
-11 24 -9 4 -20 11 -24 17 -5 8 -8 7 -8 -1 0 -6 7 -19 16 -27 14 -15 13 -16
-6 -16 -12 0 -19 4 -16 9 3 5 -1 11 -9 15 -8 3 -12 11 -9 19 5 15 -11 15 -59
2 -19 -5 -26 -12 -23 -22 8 -20 -21 -28 -41 -12 -15 13 -15 12 -3 -8 8 -12 18
-19 22 -17 5 3 27 3 50 -1 29 -5 37 -10 27 -16 -13 -8 -9 -10 16 -9 10 1 31
-24 38 -45 7 -19 6 -19 -7 -2 -14 18 -32 24 -21 7 3 -5 -3 -10 -14 -10 -12 0
-21 -4 -21 -8 0 -4 -9 -8 -19 -8 -11 0 -17 4 -15 8 3 4 0 8 -5 8 -24 0 -9 16
16 18 35 3 35 3 11 32 l-21 25 8 -24 c4 -15 3 -21 -3 -17 -18 11 -43 -5 -37
-24 4 -14 1 -16 -20 -12 -15 2 -25 11 -25 21 0 10 -8 17 -20 17 -12 0 -19 -5
-16 -13 3 -8 -1 -10 -11 -6 -11 4 -14 2 -11 -8 3 -8 13 -13 23 -11 13 3 16 -1
11 -13 -4 -10 -2 -14 5 -9 7 4 10 1 7 -7 -3 -8 -13 -16 -23 -17 -10 -3 -15 0
-11 7 4 6 2 11 -3 11 -6 0 -11 -5 -11 -10 0 -7 -7 -7 -20 0 -28 15 -49 1 -25
-17 11 -7 13 -13 7 -13 -7 0 -12 -5 -12 -11 0 -5 4 -8 9 -5 5 4 20 2 33 -3 17
-7 18 -10 6 -10 -10 -1 -18 -5 -18 -11 0 -5 -5 -10 -11 -10 -5 0 -7 5 -3 12 5
7 2 9 -8 5 -11 -4 -33 10 -63 39 -26 24 -51 44 -55 44 -4 0 -10 6 -13 14 -4
10 0 12 14 9 14 -4 19 0 19 16 0 11 -3 20 -7 20 -20 -3 -31 2 -37 17 -4 10 -1
14 6 11 7 -2 24 8 38 22 14 14 32 25 40 25 8 -1 24 -2 35 -3 19 -2 19 -2 2
-12 -10 -6 -27 -9 -38 -6 -10 3 -17 1 -13 -4 3 -5 18 -9 34 -9 23 0 31 5 36
24 5 22 9 24 31 15 31 -11 26 -12 52 10 13 11 28 22 34 24 7 2 9 8 5 12 -11
12 -68 -6 -68 -21 0 -11 -8 -13 -32 -9 -18 3 -41 7 -52 9 -10 1 -22 10 -28 19
-5 9 -15 17 -23 17 -8 0 -17 5 -21 11 -4 8 0 9 15 4 16 -5 20 -3 15 9 -3 9 -1
16 5 16 6 0 11 8 11 18 0 13 -2 14 -9 4 -6 -11 -11 -10 -25 3 -9 9 -22 15 -29
12 -7 -3 -13 3 -13 13 0 11 5 16 15 12 9 -3 12 -1 7 6 -4 7 -1 12 9 12 11 0
15 5 12 15 -4 8 -2 17 4 21 5 3 7 14 4 25 -4 12 -1 21 9 25 23 9 10 23 -16 16
-14 -3 -19 -2 -14 6 4 7 18 12 31 12 12 0 26 7 29 16 5 13 1 14 -27 9 -17 -4
-33 -11 -35 -16 -2 -5 -10 -9 -18 -9 -9 0 -12 5 -8 12 5 8 2 9 -9 5 -10 -3
-17 -2 -17 3 0 6 -7 10 -15 10 -8 0 -15 4 -15 9 0 5 6 9 13 8 43 -1 59 4 53
18 -3 8 0 14 7 12 7 -1 11 6 9 16 -2 12 4 17 18 17 14 0 19 4 14 13 -6 9 -4 9
8 -1 14 -11 18 -10 27 6 7 14 18 18 38 15 28 -4 28 -4 5 9 -21 13 -20 14 18
15 47 2 60 9 60 29 0 8 -4 13 -9 9 -5 -3 -12 -1 -15 4 -3 5 11 11 32 13 43 6
57 0 23 -9 -16 -4 -19 -8 -10 -13 16 -11 39 -1 39 16 0 13 30 34 49 34 6 0 7
-7 4 -17 -4 -10 -2 -14 4 -10 6 4 13 16 16 28 5 18 2 20 -16 15 -12 -3 -101
-24 -197 -47 -224 -53 -529 -129 -695 -173 -71 -19 -204 -51 -295 -71 -183
-41 -351 -83 -480 -120 -47 -13 -103 -27 -125 -31 l-40 -6 70 -61 c203 -177
497 -483 670 -697 353 -438 539 -721 763 -1160 195 -383 182 -360 207 -360 13
0 135 36 272 81 239 77 774 236 1128 334 269 75 550 171 649 222 196 102 366
333 476 648 67 192 93 501 61 710 -36 231 -88 396 -190 610 -136 283 -218 408
-370 567 -135 141 -231 209 -342 242 -83 25 -243 21 -364 -8 -147 -36 -291
-84 -369 -123 -56 -28 -73 -33 -92 -25 -16 8 -47 6 -116 -9 -168 -35 -554
-138 -807 -215 -80 -25 -247 -72 -371 -104 -124 -33 -317 -86 -430 -120 -210
-62 -886 -255 -1089 -310 -62 -16 -194 -48 -294 -70 -100 -23 -243 -56 -317
-76 -289 -75 -932 -290 -1164 -389 -58 -25 -110 -45 -116 -45 -6 0 -38 21 -73
46 -175 128 -423 198 -752 211 -170 7 -348 -8 -456 -38 -91 -25 -204 -82 -326
-165 -115 -78 -117 -79 -383 -150 -113 -31 -266 -76 -340 -100 -200 -67 -659
-245 -875 -340 -192 -83 -800 -380 -975 -475 -197 -106 -883 -512 -1155 -682
-207 -130 -343 -207 -366 -207 -18 0 -68 125 -139 350 -29 91 -70 199 -91 242
l-38 76 -5 184 c-5 213 -22 345 -77 589 -21 97 -39 185 -39 196 0 16 14 26 63
43 278 102 460 266 587 525 63 130 109 268 136 410 24 124 24 334 0 438 -10
43 -16 80 -14 82 2 2 64 13 138 25 74 12 261 48 415 80 154 32 372 77 485 99
243 48 334 73 415 111 74 35 171 53 443 85 236 27 383 55 464 86 58 22 94 48
320 230 78 64 202 160 273 214 566 430 842 678 1344 1210 124 132 312 328 416
435 286 294 570 618 668 762 49 71 128 203 140 233 8 18 9 18 18 3 9 -16 -6
-50 -63 -143 -10 -16 -27 -50 -39 -75 -43 -93 -113 -227 -142 -270 -48 -71
-191 -253 -322 -409 -66 -79 -145 -173 -175 -210 -30 -36 -103 -123 -161 -193
-58 -70 -126 -153 -150 -185 -147 -196 -420 -516 -574 -673 -242 -247 -307
-305 -710 -627 -110 -87 -265 -215 -344 -284 -201 -174 -245 -207 -336 -250
-101 -47 -233 -80 -478 -119 -407 -66 -562 -98 -1232 -258 -137 -33 -311 -72
-385 -87 -74 -15 -136 -28 -137 -29 -1 -1 -4 -80 -7 -176 -4 -159 -7 -187 -39
-310 -51 -198 -109 -329 -213 -485 -115 -173 -338 -386 -472 -451 -43 -20 -52
-29 -46 -42 13 -30 53 -232 64 -328 8 -66 8 -109 1 -150 -21 -109 -13 -270 25
-526 19 -134 39 -247 44 -252 5 -5 45 15 92 46 46 30 139 90 208 133 69 43
193 122 276 176 386 249 775 466 1419 791 821 416 1177 560 1734 702 167 43
289 81 368 114 237 100 366 126 628 126 238 1 401 -22 749 -105 106 -26 178
-38 195 -34 14 4 76 29 136 55 224 100 962 335 1455 465 307 80 780 214 809
228 13 7 28 23 32 37 3 14 24 86 45 160 51 182 106 317 209 512 172 325 337
543 563 745 119 106 224 175 387 257 226 112 394 159 748 208 141 20 205 23
492 23 296 0 345 -2 475 -23 173 -28 320 -62 450 -107 113 -38 461 -178 574
-230 113 -52 243 -105 258 -105 7 0 25 -7 41 -15 l27 -14 30 58 c33 66 224
541 233 582 6 24 3 27 -24 33 -17 3 -53 6 -80 6 -84 0 -389 58 -589 113 -285
78 -438 129 -700 234 -203 81 -384 167 -499 236 -101 61 -247 183 -261 218 -7
17 -20 29 -30 29 -30 0 -324 -88 -525 -156 -375 -129 -561 -165 -731 -146
-127 15 -214 42 -339 104 -186 93 -317 195 -455 354 -259 299 -433 594 -684
1159 -58 132 -115 255 -126 273 l-20 33 -67 -83 c-36 -46 -69 -85 -72 -88 -4
-3 -40 -43 -81 -90 -343 -395 -979 -1053 -1560 -1612 -590 -568 -714 -692
-814 -803 -115 -130 -178 -195 -188 -195 -16 0 -7 41 26 112 18 40 97 201 173
358 154 313 208 397 447 700 337 428 383 496 616 924 137 252 205 371 235 410
34 45 21 46 -62 7 -41 -20 -91 -57 -148 -112 -47 -45 -88 -80 -91 -77 -9 10
52 197 108 333 80 191 82 193 126 200 85 14 223 73 317 136 136 90 224 215
316 446 60 154 81 193 103 198 138 28 208 43 364 81 203 49 230 52 239 27 19
-54 213 -537 260 -648 163 -384 421 -842 631 -1120 125 -165 302 -351 392
-412 278 -188 595 -177 853 31 l69 55 51 -20 c70 -28 124 -21 224 29 43 22 98
45 121 51 23 7 54 22 69 35 l28 24 -22 44 c-11 23 -55 87 -96 141 -80 106
-142 223 -267 506 -163 370 -237 639 -286 1041 -22 182 -26 588 -6 700 53 295
70 354 190 645 61 148 68 172 56 186 -8 8 -14 21 -14 28 0 27 -155 471 -202
581 -124 286 -360 715 -517 940 -167 240 -363 457 -471 520 -80 48 -206 91
-382 130 -73 17 -149 36 -168 44 -19 8 -44 18 -55 22 -18 6 -17 8 10 14 130
32 435 -37 609 -137 244 -139 358 -256 558 -564 144 -221 287 -502 446 -869
138 -321 239 -635 216 -672 -4 -6 -2 -9 4 -7 5 2 57 67 115 144 58 77 152 190
208 250 141 153 134 139 99 210 -16 33 -81 167 -145 298 -126 262 -316 621
-405 763 -176 281 -369 488 -530 567 -56 27 -76 31 -145 31 -58 1 -98 -6 -145
-22 l-65 -23 -85 35 c-46 18 -86 38 -88 44 -4 14 69 56 144 84 50 18 81 22
204 22 125 1 152 -2 196 -20 197 -80 427 -339 676 -759 146 -245 455 -888 474
-985 4 -17 11 -33 16 -36 5 -3 36 21 69 53 71 72 73 84 27 210 -34 95 -288
605 -382 768 -299 516 -541 795 -787 909 -127 58 -177 69 -308 64 -179 -7
-270 -42 -503 -191 -13 -8 -36 -7 -90 6 -255 61 -575 37 -823 -63 -304 -121
-468 -351 -525 -735 -71 -475 2 -1316 176 -2030 27 -111 32 -142 22 -152 -14
-13 -276 -68 -499 -104 l-136 -22 -69 55 c-80 64 -190 130 -271 164 -44 18
-77 24 -137 24 -61 0 -84 4 -99 18 -13 12 -35 17 -71 17 -46 -1 -58 -6 -118
-53 -36 -29 -120 -109 -186 -179 l-120 -126 -148 110 c-250 185 -303 213 -407
213 -97 0 -189 -53 -235 -137 -10 -17 -12 -17 -46 -1 -86 41 -223 27 -263 -27
l-18 -26 -41 20 c-100 49 -211 53 -298 11 -65 -31 -154 -115 -210 -198 -25
-37 -81 -130 -123 -207 l-78 -140 -51 -17 c-80 -26 -632 -135 -1394 -274 -395
-72 -391 -71 -444 -104 -69 -44 -88 -41 -128 25 l-33 55 -113 -1 c-61 -1 -113
0 -115 2 -1 2 -16 69 -31 149 -16 80 -36 168 -45 195 -8 28 -15 54 -16 58 0 4
31 19 69 32 85 30 141 66 166 108 34 55 26 61 -77 59 -51 0 -95 3 -97 7 -3 5
3 35 13 67 11 33 29 91 41 129 12 39 41 104 65 145 90 155 120 288 140 630 9
140 25 325 35 411 33 260 23 481 -30 654 -86 279 -353 629 -568 743 -74 40
-171 70 -268 85 l-78 12 -113 135 c-416 499 -935 824 -1538 965 -144 33 -391
73 -530 85 -109 9 -512 11 -610 3z m515 -183 c306 -15 498 -46 747 -120 433
-130 810 -353 1138 -675 144 -141 355 -457 355 -532 0 -24 -7 -28 -26 -15 -6
4 -34 50 -64 102 -86 155 -145 233 -264 348 -288 278 -640 490 -1036 622 -231
77 -541 139 -806 161 -218 18 -592 7 -794 -24 -429 -66 -715 -165 -1000 -346
-126 -80 -170 -104 -170 -91 0 30 48 95 117 160 173 160 301 221 653 311 341
87 724 120 1150 99z m-2245 -334 c18 -8 38 -23 43 -33 9 -17 4 -18 -96 -18
-190 -1 -237 -50 -197 -206 18 -67 34 -149 30 -149 -12 0 -97 144 -101 172
-17 102 33 190 129 227 62 24 144 27 192 7z m-695 -528 c84 -86 149 -218 245
-500 72 -215 73 -224 15 -248 -44 -18 -55 -4 -85 108 -58 216 -226 549 -273
540 -23 -4 -43 -67 -29 -93 5 -11 14 -22 18 -25 5 -3 10 -15 12 -25 1 -11 15
-40 29 -65 51 -85 138 -289 138 -321 0 -18 -73 -69 -100 -69 -26 0 -61 46
-116 150 -58 109 -83 118 -91 30 -2 -19 -12 -60 -22 -90 -19 -56 -50 -166 -72
-252 -6 -26 -15 -45 -20 -43 -4 3 -10 -5 -12 -17 -2 -13 -2 2 0 32 2 30 29
154 58 275 30 121 58 245 64 275 29 163 136 370 192 370 9 0 31 -15 49 -32z
m12412 -8 c73 -32 76 -49 5 -25 -34 12 -73 27 -87 33 -25 11 -25 11 6 11 17 1
52 -8 76 -19z m-37 -166 c49 -23 50 -23 43 -30 -3 -3 -32 2 -64 10 -73 19
-151 10 -243 -28 -35 -14 -67 -24 -70 -21 -9 10 52 54 104 75 61 25 169 22
230 -6z m108 -145 c34 -17 70 -32 80 -34 29 -6 140 -101 209 -179 76 -84 138
-161 138 -169 0 -3 -55 51 -122 120 -130 132 -220 205 -321 259 -78 42 -66 44
16 3z m-7055 -45 c286 -143 492 -403 579 -731 21 -82 26 -127 30 -280 4 -124
2 -183 -5 -183 -6 0 -13 30 -17 68 -33 333 -173 659 -366 852 -78 78 -129 116
-243 180 -81 46 -126 93 -126 133 0 27 32 18 148 -39z m-6268 -84 c-8 -6 -66
-40 -129 -78 -327 -194 -470 -400 -500 -724 -22 -233 20 -414 173 -740 25 -54
41 -98 36 -98 -20 0 -144 179 -198 285 -135 270 -135 655 2 939 93 194 242
324 451 395 86 29 199 43 165 21z m1885 -242 c-88 -46 -306 -137 -380 -158
-43 -12 -122 -28 -176 -36 -104 -14 -147 -7 -179 31 -20 24 -3 30 35 12 45
-22 53 -21 73 3 13 15 53 28 162 50 80 17 213 50 295 74 83 25 164 45 180 45
l30 0 -40 -21z m10743 -108 l32 -20 0 -227 c0 -426 31 -759 120 -1298 28 -166
50 -306 50 -313 0 -27 -32 -10 -47 26 -42 99 -112 452 -152 762 -53 408 -79
1090 -43 1090 4 0 22 -9 40 -20z m1286 -197 c83 -82 206 -313 319 -598 78
-200 275 -801 280 -858 5 -56 4 -56 -16 -2 -35 94 -171 434 -240 601 -120 291
-162 383 -288 636 -143 288 -150 315 -55 221z m-13438 6 c-3 -17 -7 -70 -7
-118 -2 -78 -3 -81 -8 -31 -8 74 -2 180 11 180 6 0 8 -12 4 -31z m964 9 c0 -5
16 -8 36 -8 20 0 52 -7 72 -16 107 -46 152 -68 152 -75 0 -14 -18 -19 -23 -7
-4 10 -6 10 -6 1 -1 -7 17 -23 39 -35 22 -13 40 -27 40 -31 0 -4 -42 15 -92
42 -51 27 -133 70 -183 94 -62 31 -81 44 -63 43 16 0 28 -4 28 -8z m4926 -95
c138 -116 247 -254 320 -402 39 -80 49 -115 69 -250 35 -232 29 -470 -16 -663
-11 -48 -29 -98 -39 -110 -16 -20 -21 -21 -45 -10 -24 11 -26 17 -21 45 20
111 37 374 32 491 -13 243 -49 388 -152 595 -54 110 -199 324 -234 346 -12 7
-13 25 -2 25 5 0 44 -30 88 -67z m-2366 38 c0 -10 -97 -105 -155 -152 -94 -75
-265 -176 -265 -156 0 7 5 18 10 23 7 7 7 11 -2 11 -18 0 -206 94 -219 109
-13 15 -18 14 204 59 97 19 196 42 220 49 23 8 65 19 92 26 28 6 61 17 75 25
29 17 40 18 40 6z m-725 -583 c-15 -18 -106 -114 -203 -213 -96 -99 -188 -198
-204 -220 -40 -55 -97 -115 -108 -115 -6 0 -10 -8 -10 -17 0 -14 -3 -14 -12
-5 -9 9 -9 15 -3 20 6 4 15 17 20 28 6 12 30 46 55 75 69 83 422 439 435 439
7 0 20 9 30 20 29 32 29 23 0 -12z m-3651 -148 c25 -63 43 -116 42 -118 -10
-9 -107 234 -105 263 1 13 9 -7 63 -145z m2032 103 c-8 -15 -15 -22 -16 -15 0
14 22 53 28 47 2 -2 -3 -16 -12 -32z m12229 -183 c157 -67 350 -440 411 -792
20 -119 33 -361 23 -462 -8 -94 -39 -210 -51 -198 -5 5 -10 100 -13 213 -7
340 -53 563 -170 814 -108 233 -222 348 -360 362 -69 7 -94 0 -150 -42 -29
-23 -42 -29 -36 -17 17 32 100 103 144 123 56 25 142 25 202 -1z m-12600 -170
c-3 -5 -14 -10 -23 -9 -14 0 -13 2 3 9 27 11 27 11 20 0z m2585 -780 c0 -7 27
-9 78 -6 66 4 84 1 110 -14 18 -11 39 -17 48 -13 12 4 15 3 10 -5 -4 -8 -2
-10 7 -6 8 3 21 -2 30 -10 9 -9 18 -16 21 -16 4 0 25 -12 47 -26 48 -30 45
-45 -4 -17 -84 50 -147 66 -287 71 -144 5 -185 0 -404 -48 -166 -36 -182 -36
-220 -6 -26 22 -28 26 -14 39 22 22 166 32 378 27 86 -3 95 -1 108 19 11 15
25 21 53 21 22 0 39 -5 39 -10z m5799 -111 c42 -15 39 -25 -10 -33 -115 -18
-196 -101 -298 -303 -37 -74 -44 -83 -75 -89 -19 -3 -39 -3 -45 0 -13 9 17 95
70 198 50 97 153 208 209 225 47 15 110 15 149 2z m478 -109 c25 -17 42 -34
39 -37 -3 -4 -16 3 -29 13 -12 11 -34 28 -49 37 -23 14 -26 15 -22 2 4 -8 1
-15 -5 -15 -7 0 -15 8 -18 18 -4 9 -16 25 -28 34 -33 29 58 -13 112 -52z
m2243 61 c-8 -5 -33 -11 -55 -14 l-40 -6 35 14 c40 15 85 20 60 6z m-11109
-55 c91 -20 142 -48 217 -119 51 -50 152 -183 152 -201 0 -17 -37 10 -93 67
-117 119 -218 167 -348 167 -128 0 -241 -52 -310 -144 -51 -67 -59 -104 -59
-267 0 -263 42 -374 199 -529 175 -174 319 -217 576 -175 50 8 105 15 123 15
86 0 -24 -80 -144 -105 -97 -21 -215 -19 -296 4 -235 67 -470 312 -533 556
-96 373 32 668 319 730 80 18 117 18 197 1z m2789 -67 c170 -27 399 -200 477
-360 49 -100 66 -185 61 -314 -4 -94 -8 -118 -32 -168 -79 -166 -263 -263
-516 -274 -104 -5 -141 -2 -225 16 -240 52 -357 102 -432 185 -88 97 -129 220
-121 361 5 84 40 190 67 200 24 9 26 -4 5 -38 -16 -27 -19 -49 -18 -153 1
-118 2 -123 38 -198 44 -92 149 -208 224 -249 27 -15 80 -33 118 -42 38 -8 79
-18 92 -20 23 -6 23 -5 5 22 -10 15 -23 34 -30 41 -17 17 -17 32 0 32 20 0
166 74 229 117 105 71 225 200 291 315 15 26 27 49 27 52 0 3 -22 2 -48 -1
l-49 -5 -25 43 c-14 24 -40 84 -59 132 -52 139 -109 190 -269 244 -96 32 -110
40 -90 47 69 26 179 32 280 15z m-1532 -101 c17 -17 15 -27 -5 -24 -10 2 -19
10 -21 19 -4 20 9 22 26 5z m3878 -27 c36 -16 45 -27 62 -74 36 -94 55 -222
56 -372 1 -151 -10 -204 -61 -293 -81 -142 -250 -262 -328 -232 -24 9 -26 14
-21 43 4 17 7 49 6 70 0 29 6 45 29 67 28 29 61 40 61 21 0 -12 39 -2 70 18
72 47 115 116 146 237 17 67 17 74 1 139 -35 142 -119 255 -232 311 -42 21
-72 41 -68 45 16 14 129 38 183 38 33 0 71 -7 96 -18z m2363 -335 c-10 -11
-650 -119 -657 -111 -5 4 77 21 218 45 408 69 449 75 439 66z m-2995 -78 c-10
-34 17 -294 41 -385 23 -89 58 -170 95 -223 42 -59 79 -130 68 -130 -28 0
-112 109 -158 205 -60 123 -84 227 -84 360 0 109 20 228 35 204 5 -8 6 -22 3
-31z m-2690 -90 c10 -51 22 -115 28 -141 13 -59 3 -73 -17 -24 -14 35 -45 200
-45 245 0 50 18 7 34 -80z m910 50 c-5 -7 -2 -9 9 -5 26 10 32 -31 9 -62 -15
-20 -28 -26 -58 -26 -36 0 -39 2 -42 31 -3 26 2 35 30 52 37 23 63 28 52 10z
m2292 -41 c51 -44 27 -114 -51 -151 -65 -31 -87 -16 -87 59 0 37 24 75 62 99
34 21 44 20 76 -7z m639 -127 c4 -6 13 -67 20 -136 17 -148 35 -219 77 -292
36 -63 119 -149 169 -176 36 -19 36 -19 145 8 60 14 215 47 344 72 359 69 844
161 1055 199 105 19 241 45 302 57 l113 22 87 -86 c93 -92 153 -138 268 -206
156 -92 305 -124 482 -103 57 6 116 16 130 22 50 19 32 2 -59 -58 -51 -32
-156 -109 -234 -170 l-141 -110 -68 -6 c-37 -4 -72 -4 -77 -1 -5 3 -18 24 -29
47 -26 55 -46 70 -257 191 -199 114 -246 136 -298 136 -77 0 -338 -45 -819
-141 -496 -99 -502 -100 -770 -191 -148 -50 -294 -94 -324 -97 -33 -4 -57 -12
-62 -21 -5 -8 -31 -73 -59 -145 -90 -227 -200 -391 -360 -536 -168 -152 -259
-211 -615 -394 -273 -140 -534 -285 -737 -407 -81 -48 -160 -93 -175 -99 l-28
-11 35 -16 c162 -74 436 -214 530 -272 276 -170 377 -191 745 -154 88 9 170
18 182 20 12 2 70 48 129 102 228 207 399 342 709 560 213 149 268 187 453
306 214 138 731 441 739 433 5 -6 -46 -40 -187 -127 -216 -132 -628 -388 -715
-444 -387 -247 -659 -461 -994 -784 -112 -108 -234 -217 -270 -242 l-66 -45
-210 3 c-126 1 -263 9 -344 20 l-135 17 -32 59 c-85 158 -179 249 -370 358
-147 84 -270 133 -409 163 -61 13 -348 30 -624 38 l-84 2 -14 40 c-25 67 -90
314 -85 320 2 2 12 0 21 -4 24 -13 288 -58 410 -71 216 -21 397 -5 562 50 98
33 302 132 604 295 105 56 240 128 300 160 141 74 368 224 465 307 140 120
241 252 299 392 28 67 48 138 95 339 l16 69 -30 69 c-38 89 -83 156 -164 245
l-65 71 51 74 c59 87 106 180 114 229 3 19 7 41 9 48 5 15 240 17 250 2z
m4289 -135 c56 -46 117 -99 135 -119 l35 -36 -22 -63 c-44 -121 -139 -264
-265 -397 -95 -100 -241 -263 -362 -404 -66 -76 -155 -180 -198 -230 -43 -50
-120 -140 -171 -201 -110 -130 -415 -464 -565 -620 -59 -60 -205 -213 -326
-340 -480 -503 -592 -609 -967 -921 -59 -49 -174 -145 -256 -214 -82 -69 -260
-213 -397 -320 -484 -381 -464 -367 -575 -409 l-53 -20 24 26 c13 14 103 89
199 166 96 78 218 176 270 219 150 122 337 265 479 367 243 174 649 524 921
793 219 217 770 822 972 1068 20 25 92 113 160 196 251 307 391 472 708 829
239 270 261 299 267 360 7 55 -15 109 -97 245 -32 52 -61 106 -65 120 l-8 24
28 -18 c16 -10 73 -56 129 -101z m-8003 -92 c13 -16 12 -17 -3 -4 -17 13 -22
21 -14 21 2 0 10 -8 17 -17z m3222 -305 c69 -88 118 -181 124 -241 3 -25 -2
-80 -11 -123 -47 -233 -172 -401 -458 -616 -161 -121 -263 -186 -405 -257
-115 -57 -159 -73 -151 -53 5 13 129 122 139 122 5 0 65 37 133 83 69 45 169
109 223 142 189 116 294 221 363 360 58 119 73 189 68 320 -3 90 -8 118 -26
153 -28 52 -87 119 -113 127 -24 8 -25 31 -1 44 37 22 56 12 115 -61z m-2253
53 c0 -14 -10 -19 -74 -35 -42 -11 -64 -12 -86 -4 -41 14 -38 28 8 29 20 1 51
5 67 9 44 11 85 11 85 1z m-2221 -171 c17 -28 59 -103 93 -168 105 -200 171
-293 313 -441 145 -151 305 -274 509 -391 292 -168 619 -285 1145 -411 178
-42 319 -77 436 -109 58 -15 -78 1 -207 26 -199 37 -684 143 -778 169 -304 85
-590 212 -810 358 -187 125 -409 332 -491 460 -51 79 -125 231 -187 387 -74
187 -79 211 -23 120z m2441 16 c0 -33 -16 -42 -29 -17 -16 29 -13 41 9 41 15
0 20 -7 20 -24z m1374 -6 c124 -28 4 -93 -199 -107 -101 -7 -171 3 -195 27
-37 37 -4 62 100 79 74 12 246 13 294 1z m-1404 -55 c-7 -8 -22 -15 -34 -15
-20 1 -20 2 4 15 33 19 46 19 30 0z m-722 -44 c158 -62 262 -194 262 -330 0
-83 -22 -131 -86 -194 -148 -146 -410 -180 -598 -79 -148 79 -254 264 -227
393 27 125 98 196 234 234 38 11 90 14 192 12 130 -4 146 -6 223 -36z m1600
-294 c48 -50 79 -66 150 -76 l57 -9 -78 -1 c-90 -1 -117 9 -170 68 -47 52 -66
90 -73 148 l-6 48 42 -70 c23 -38 58 -87 78 -108z m6017 153 c3 -5 -1 -24 -9
-42 -8 -18 -26 -65 -40 -105 -89 -254 -211 -409 -667 -848 -328 -316 -430
-414 -498 -479 l-75 -71 75 85 c41 47 108 126 149 175 41 50 197 212 346 360
149 149 310 317 358 375 88 107 165 239 186 320 7 25 28 76 48 113 51 98 107
150 127 117z m-1648 -124 c13 -12 -11 -40 -74 -84 -37 -26 -84 -63 -104 -83
-112 -113 -692 -544 -944 -702 -66 -41 -284 -177 -485 -302 -506 -316 -713
-455 -904 -609 -262 -211 -431 -394 -617 -671 -123 -183 -171 -245 -181 -239
-10 6 -6 24 29 114 54 140 260 411 481 633 240 242 440 398 872 679 30 20 181
112 335 206 467 283 728 449 995 633 253 175 386 265 399 271 4 2 16 17 26 34
11 17 38 55 59 84 37 49 42 52 74 46 19 -3 37 -7 39 -10z m-8687 -200 c38 -81
94 -152 148 -190 77 -53 41 -78 -39 -28 -47 30 -95 84 -122 139 -17 31 -35
143 -24 143 3 0 20 -29 37 -64z m-381 -86 c21 0 51 -44 51 -75 0 -19 -4 -35
-8 -35 -15 0 -40 25 -61 60 -25 42 -27 65 -5 56 9 -3 19 -6 23 -6z m-29 -219
c27 -40 29 -47 16 -60 -34 -33 -134 70 -183 189 -12 30 -22 62 -22 70 0 18
146 -136 189 -199z m400 79 c30 -36 37 -50 25 -50 -30 0 -56 21 -71 55 -26 64
-10 62 46 -5z m1391 8 c18 -33 24 -333 9 -459 -16 -146 -44 -274 -86 -398 -45
-135 -75 -187 -111 -194 -43 -8 -46 1 -18 48 14 24 41 90 60 147 66 199 88
342 100 648 9 228 17 263 46 208z m3073 -39 c-3 -5 -11 -9 -19 -9 -7 0 -15
-10 -17 -22 -3 -21 -9 -23 -68 -26 -80 -4 -110 3 -110 26 0 24 57 44 120 41
27 -2 52 0 55 3 9 9 45 -3 39 -13z m7 -146 c7 -7 0 -12 -21 -15 -17 -3 -33 -1
-36 3 -2 5 -11 6 -18 3 -7 -3 -29 2 -47 10 -34 16 -34 16 39 12 40 -2 78 -8
83 -13z m4104 -695 c-642 -665 -925 -921 -1475 -1333 -209 -157 -316 -240
-510 -400 -275 -226 -392 -304 -518 -346 -78 -26 -91 -19 -26 14 129 63 257
152 494 342 96 77 292 230 435 340 296 226 445 346 695 559 248 212 378 332
784 724 103 100 191 182 194 182 4 0 -29 -37 -73 -82z m-5631 35 c34 -113 102
-697 85 -725 -9 -14 -47 -1 -58 21 -6 10 -19 143 -30 297 -27 366 -29 397 -24
412 7 18 21 15 27 -5z m-1955 -216 c18 -22 -8 -43 -69 -56 -30 -6 -68 -20 -85
-32 -26 -17 -91 -49 -101 -49 -2 0 -1 7 2 15 9 23 100 86 162 111 67 27 76 29
91 11z m651 -172 c285 -42 489 -109 777 -253 76 -38 188 -99 248 -137 61 -37
148 -91 195 -120 235 -145 370 -184 735 -215 72 -6 180 -15 240 -20 61 -6 216
-14 345 -20 129 -5 436 -20 683 -32 400 -20 447 -24 447 -39 0 -12 -12 -18
-41 -23 -64 -10 -1177 -7 -1412 4 -618 29 -836 82 -1122 272 -444 295 -659
389 -1065 465 -132 25 -166 27 -390 28 -207 0 -255 -3 -309 -18 -517 -146
-881 -920 -882 -1872 0 -171 5 -275 20 -403 12 -96 21 -193 21 -217 l0 -43 63
-21 c274 -89 587 -120 877 -87 307 36 510 106 644 222 27 24 53 41 58 38 4 -3
15 2 24 10 26 26 37 18 16 -11 -153 -213 -470 -326 -952 -340 -153 -4 -214 -2
-356 16 -262 33 -442 88 -481 148 -16 24 -16 26 6 42 23 17 23 20 12 87 -39
248 -53 613 -31 849 25 268 83 537 170 790 63 183 108 280 190 410 147 236
273 351 468 430 196 79 511 103 802 60z m1785 -228 c97 -72 210 -182 275 -269
33 -43 60 -83 60 -89 0 -5 -38 -9 -84 -9 l-84 0 -31 66 c-53 113 -117 198
-236 312 -63 61 -115 113 -115 116 0 9 154 -82 215 -127z m439 88 c144 -42
306 -132 458 -256 80 -66 176 -158 190 -183 9 -18 7 -19 -30 -14 -45 7 -91 36
-242 156 -150 119 -256 188 -399 259 -100 50 -119 63 -94 63 17 0 70 -11 117
-25z m-656 -294 c64 -43 117 -89 109 -97 -7 -7 -229 129 -248 152 -19 23 80
-17 139 -55z m-836 -1475 c556 -79 1138 -128 1498 -127 134 0 262 3 285 5 22
3 85 8 140 11 109 6 259 20 370 34 67 8 84 7 73 -4 -9 -10 -255 -38 -484 -55
-178 -14 -892 -14 -1139 0 -222 13 -492 42 -690 75 -226 38 -479 86 -485 92
-11 12 268 -8 432 -31z m2448 -66 c0 -5 -17 -9 -37 -9 -38 1 -38 1 -8 9 43 11
45 11 45 0z m37 4 c-3 -3 -12 -4 -19 -1 -8 3 -5 6 6 6 11 1 17 -2 13 -5z
m10694 -109 c253 -87 472 -358 648 -803 95 -238 140 -440 148 -653 8 -200 -16
-324 -99 -513 -32 -73 -128 -239 -134 -233 -3 2 8 30 22 63 36 82 60 162 89
300 48 236 44 371 -20 618 -106 409 -253 711 -441 912 -49 53 -141 124 -160
124 -8 0 -14 4 -14 8 0 5 -23 19 -51 32 -49 22 -59 22 -203 17 -155 -6 -213
-16 -208 -36 1 -6 -2 -11 -8 -11 -5 0 -10 5 -10 10 0 6 -8 10 -17 10 -21 1
-53 23 -53 37 0 6 47 29 105 51 199 79 316 98 406 67z m-10958 -205 c26 -95
31 -195 17 -306 -16 -129 -60 -302 -97 -385 -100 -219 -306 -422 -515 -506
-58 -24 -75 -26 -243 -27 -99 0 -274 3 -390 8 -231 9 -505 -2 -690 -29 -122
-18 -441 -73 -465 -80 -22 -7 -601 -91 -785 -114 -247 -31 -552 -44 -741 -31
-153 10 -339 41 -357 59 -10 10 -135 443 -172 599 -31 125 -53 253 -48 268 3
7 24 1 58 -18 30 -16 91 -42 137 -57 131 -45 129 -44 171 -134 21 -45 76 -152
123 -238 46 -85 91 -178 100 -205 8 -27 19 -58 24 -69 4 -11 15 -41 24 -66 20
-55 21 -55 201 -58 109 -2 519 23 555 34 8 2 83 11 165 19 83 9 231 27 330 41
709 103 766 110 1010 125 366 22 462 61 711 288 176 161 308 315 426 497 36
55 77 110 90 123 28 26 96 46 203 61 46 7 74 16 82 27 9 12 13 52 13 115 0
109 5 131 29 127 10 -2 22 -26 34 -68z m9271 -406 c3 -8 2 -12 -4 -9 -6 3 -10
10 -10 16 0 14 7 11 14 -7z m1146 -27 c0 -5 -4 -5 -10 -2 -5 3 -10 14 -10 23
0 15 2 15 10 2 5 -8 10 -19 10 -23z m-140 3 c0 -5 -2 -10 -4 -10 -3 0 -8 5
-11 10 -3 6 -1 10 4 10 6 0 11 -4 11 -10z m-80 -34 c0 -2 -9 -6 -20 -9 -11 -3
-20 -1 -20 4 0 5 9 9 20 9 11 0 20 -2 20 -4z m-337 -221 c-5 -13 -23 -22 -23
-11 0 15 14 35 21 31 4 -3 6 -12 2 -20z m-38 -14 c-8 -13 -35 -15 -35 -2 0 5
8 11 18 13 21 5 26 2 17 -11z m-12527 -75 c34 -14 95 -44 135 -69 118 -71 236
-104 477 -132 246 -28 263 -37 151 -78 -166 -62 -391 -74 -531 -28 -141 45
-307 175 -327 257 -11 43 -2 74 21 74 7 0 40 -11 74 -24z m12492 -1 c0 -7 -7
-15 -15 -19 -15 -5 -22 24 -9 37 9 9 24 -2 24 -18z m-150 -55 c0 -5 -2 -10 -4
-10 -3 0 -8 5 -11 10 -3 6 -1 10 4 10 6 0 11 -4 11 -10z m-547 -7 c-7 -2 -19
-2 -25 0 -7 3 -2 5 12 5 14 0 19 -2 13 -5z m55 -12 c21 -13 -12 -33 -45 -28
-27 4 -27 5 -5 12 12 4 22 11 22 16 0 11 11 11 28 0z m-234 -19 c2 -4 -5 -9
-17 -9 -17 -2 -19 0 -7 7 18 12 18 12 24 2z m131 -2 c-3 -5 -10 -10 -16 -10
-5 0 -9 5 -9 10 0 6 7 10 16 10 8 0 12 -4 9 -10z m128 -5 c-3 -9 -8 -14 -10
-11 -3 3 -2 9 2 15 9 16 15 13 8 -4z m-340 -19 c18 4 27 2 27 -6 0 -7 -7 -10
-17 -5 -14 5 -15 3 -7 -5 9 -9 17 -9 34 0 20 11 22 10 17 -4 -4 -9 -2 -16 3
-16 6 0 10 -7 10 -16 0 -13 3 -14 14 -5 11 9 15 6 18 -13 3 -14 0 -27 -6 -30
-6 -2 -3 -5 7 -5 11 -1 26 7 35 17 10 10 16 16 15 13 -2 -2 5 -10 15 -18 9 -8
12 -12 6 -9 -11 5 -28 -33 -19 -42 7 -8 36 7 31 16 -2 4 11 6 30 4 22 -3 34 0
34 8 0 7 -6 10 -14 7 -16 -7 -56 19 -56 36 0 7 5 4 10 -5 7 -12 20 -15 44 -12
20 2 38 -1 42 -8 5 -7 3 -8 -6 -3 -10 6 -12 4 -7 -8 3 -10 2 -17 -3 -17 -6 0
-10 -11 -10 -24 0 -19 -5 -24 -20 -23 -11 1 -20 5 -20 10 0 5 7 7 15 3 8 -3
15 -1 15 4 0 17 -25 11 -43 -10 -12 -14 -13 -20 -4 -20 7 0 23 -9 34 -19 12
-11 23 -17 26 -15 3 3 11 -4 17 -16 15 -28 6 -37 -15 -16 -9 9 -19 16 -23 16
-4 0 7 -13 23 -29 20 -18 33 -24 37 -17 5 6 8 2 8 -10 0 -11 3 -23 6 -26 10
-10 44 4 44 18 0 8 5 14 11 14 18 0 4 -24 -19 -35 -12 -5 -22 -13 -22 -18 0
-4 -5 -5 -12 -1 -7 4 -8 3 -4 -4 4 -6 13 -9 20 -6 8 3 17 1 21 -5 3 -6 11 -11
16 -11 6 0 7 5 4 10 -7 11 8 14 18 3 4 -3 -3 -13 -14 -21 -18 -12 -23 -12 -30
-1 -7 12 -10 12 -21 0 -10 -10 -10 -12 0 -7 6 4 12 2 12 -3 0 -6 11 -11 25
-11 14 0 25 -5 25 -11 0 -5 -6 -7 -12 -3 -14 8 28 -43 52 -63 13 -11 12 -12
-6 -13 -12 0 -28 -8 -35 -17 -8 -10 -9 -14 -2 -10 6 4 15 2 18 -4 4 -5 13 -8
19 -6 9 4 11 -3 8 -21 -5 -24 -4 -26 12 -13 9 8 19 11 22 8 9 -8 -6 -47 -18
-47 -6 0 0 -9 13 -21 24 -20 24 -20 1 -9 -24 12 -42 6 -41 -13 0 -9 2 -9 6 1
7 17 23 15 23 -4 0 -9 5 -12 13 -8 6 4 4 -2 -5 -13 -22 -25 -24 -63 -2 -63 8
0 25 5 37 11 17 9 15 4 -9 -22 -17 -19 -34 -43 -38 -53 -5 -14 -10 -16 -17 -9
-8 8 -8 17 0 32 9 16 7 33 -9 77 -11 32 -17 67 -14 79 4 16 -1 24 -20 33 -25
11 -36 32 -17 32 15 0 0 39 -23 58 -11 9 -21 24 -21 32 0 8 -4 14 -10 13 -5 0
-19 10 -29 25 -16 21 -17 24 -3 19 12 -4 14 -2 10 11 -4 9 -13 23 -21 31 -12
12 -15 12 -24 0 -6 -10 -7 -5 -3 17 4 23 2 33 -9 37 -10 4 -13 1 -9 -9 9 -24
-2 -16 -36 27 -30 36 -38 53 -40 84 -1 6 -5 4 -10 -4 -7 -11 -11 -10 -19 5 -6
11 -38 46 -71 79 -36 35 -59 66 -56 74 4 9 0 11 -11 7 -8 -3 -23 2 -32 11 -16
16 -16 16 4 11 18 -5 21 -2 17 16 -3 15 -2 17 5 8 6 -9 18 -11 35 -6z m-1501
-11 c40 -9 93 -28 118 -42 65 -38 201 -180 309 -323 52 -69 165 -210 251 -315
332 -404 377 -461 522 -676 356 -527 648 -1063 923 -1689 182 -417 505 -1213
505 -1247 0 -7 -18 -22 -40 -33 -39 -20 -60 -20 -60 1 0 5 -43 109 -96 232
-53 122 -170 395 -261 606 -234 545 -231 540 -373 823 -257 512 -546 987 -912
1495 -272 379 -554 724 -712 871 -234 217 -472 227 -1134 46 -129 -35 -314
-88 -412 -119 -247 -76 -380 -108 -397 -94 -21 18 -16 57 10 73 21 14 587 203
792 265 168 50 364 100 480 120 141 25 382 28 487 6z m1775 9 c-3 -3 -12 -4
-19 -1 -8 3 -5 6 6 6 11 1 17 -2 13 -5z m373 -4 c0 -5 -4 -10 -9 -10 -5 0 -18
-3 -28 -6 -16 -5 -16 -4 1 10 23 18 36 20 36 6z m-407 -14 c3 -8 0 -17 -7 -19
-10 -4 -12 1 -9 14 6 23 9 24 16 5z m-73 0 c0 -3 -4 -8 -10 -11 -5 -3 -10 -1
-10 4 0 6 5 11 10 11 6 0 10 -2 10 -4z m-10 -31 c0 -7 -30 -13 -34 -7 -3 4 4
9 15 9 10 1 19 0 19 -2z m561 -42 c12 -16 12 -17 -1 -7 -8 6 -22 14 -30 17
-13 5 -12 6 1 6 9 1 23 -7 30 -16z m-141 -63 c0 -5 -5 -10 -11 -10 -5 0 -7 5
-4 10 3 6 8 10 11 10 2 0 4 -4 4 -10z m-4595 -26 c209 -29 346 -82 471 -183
121 -98 182 -200 299 -504 117 -304 192 -468 342 -747 134 -248 306 -539 443
-750 59 -91 147 -235 195 -320 110 -194 335 -544 430 -670 108 -143 242 -287
431 -462 263 -244 470 -403 759 -583 181 -113 480 -312 515 -344 19 -17 -14 2
-75 42 -60 41 -238 147 -395 236 -295 168 -449 266 -656 417 -176 129 -212
161 -379 328 -223 225 -425 499 -700 951 -7 11 -43 76 -80 145 -73 134 -205
363 -290 500 -208 337 -261 430 -356 625 -59 121 -155 333 -214 470 -154 359
-243 516 -345 608 -184 166 -653 242 -1062 172 -48 -8 -30 12 30 33 171 62
364 73 637 36z m4305 -10 c-6 -6 -7 -14 -3 -17 10 -10 -10 -8 -27 3 -13 8 -12
10 4 10 15 0 16 3 7 14 -9 11 -9 15 1 19 17 5 29 -14 18 -29z m30 21 c7 -9 8
-15 2 -15 -5 0 -12 7 -16 15 -3 8 -4 15 -2 15 2 0 9 -7 16 -15z m300 -9 c0
-11 -19 -15 -25 -6 -3 5 1 10 9 10 9 0 16 -2 16 -4z m-75 -16 c-27 -12 -67
-12 -85 0 -11 7 3 10 45 9 43 0 54 -3 40 -9z m-165 -42 c0 -5 4 -7 9 -4 4 3
17 -1 27 -9 18 -14 17 -15 -16 -13 -19 2 -33 7 -32 12 5 12 -19 26 -45 26 -27
0 -31 17 -5 22 19 4 62 -19 62 -34z m210 23 c0 -12 -39 -21 -45 -11 -3 5 5 11
17 13 13 2 24 5 26 6 1 0 2 -3 2 -8z m-260 -46 c0 -14 -5 -25 -11 -25 -6 0 -8
7 -5 16 5 12 2 15 -10 10 -14 -5 -15 -4 -4 9 18 22 30 18 30 -10z m190 5 c18
-12 2 -12 -25 0 -13 6 -15 9 -5 9 8 0 22 -4 30 -9z m140 -6 c0 -8 -5 -12 -10
-9 -6 4 -8 11 -5 16 9 14 15 11 15 -7z m77 0 c-3 -3 -12 -4 -19 -1 -8 3 -5 6
6 6 11 1 17 -2 13 -5z m-78 -31 c2 -2 -3 -3 -11 -3 -9 0 -19 7 -22 16 -6 15
-4 15 11 3 10 -7 20 -15 22 -16z m-214 7 c3 5 16 10 28 10 18 -1 15 -4 -12
-15 -33 -15 -51 -13 -51 7 0 7 5 6 14 -1 10 -8 16 -9 21 -1z m149 -5 c-7 -18
-40 -20 -50 -3 -4 7 -3 8 4 4 7 -4 20 -2 29 3 23 14 23 14 17 -4z m103 9 c-3
-3 -12 -4 -19 -1 -8 3 -5 6 6 6 11 1 17 -2 13 -5z m-176 -39 c-1 -3 -4 -5 -7
-4 -4 0 -15 -12 -26 -28 -11 -15 -18 -20 -14 -11 3 10 1 20 -4 23 -15 9 0 34
23 37 20 3 30 -3 28 -17z m-106 -15 c3 -5 2 -10 -4 -10 -5 0 -13 5 -16 10 -3
6 -2 10 4 10 5 0 13 -4 16 -10z m-4653 -15 c184 -39 304 -99 411 -208 96 -99
168 -212 281 -442 434 -884 440 -894 873 -1575 33 -52 125 -201 203 -330 359
-590 625 -929 915 -1166 223 -182 857 -574 1185 -732 125 -60 174 -94 167
-115 -3 -11 -52 -28 -177 -63 -137 -38 -219 -85 -315 -183 -33 -34 -65 -61
-70 -61 -6 0 -73 80 -150 177 -241 304 -505 611 -695 808 -147 153 -374 420
-517 610 -122 162 -390 565 -498 750 -48 83 -120 204 -160 270 -40 66 -123
215 -185 330 -62 116 -143 264 -180 330 -99 175 -195 372 -300 610 -256 583
-365 743 -602 880 -79 46 -143 75 -238 106 -68 22 -45 24 52 4z m5128 -5 c0
-5 -2 -10 -4 -10 -3 0 -8 5 -11 10 -3 6 -1 10 4 10 6 0 11 -4 11 -10z m-440
-20 c0 -5 -5 -10 -11 -10 -5 0 -7 5 -4 10 3 6 8 10 11 10 2 0 4 -4 4 -10z
m-39 -32 c11 -21 11 -22 -4 -9 -10 7 -17 17 -17 22 0 15 9 10 21 -13z m-4915
-37 c201 -44 329 -112 460 -246 153 -156 237 -303 460 -801 141 -318 222 -475
309 -608 40 -61 115 -196 167 -301 92 -183 135 -257 405 -691 243 -390 606
-867 977 -1285 118 -132 249 -281 636 -724 190 -216 270 -322 270 -355 0 -23
-20 -39 -39 -33 -36 14 -155 130 -340 333 -108 118 -239 260 -292 315 -372
389 -613 683 -949 1160 -31 44 -100 142 -153 217 -334 474 -606 932 -823 1388
-220 463 -453 921 -592 1165 -121 212 -210 291 -387 344 -236 71 -587 66 -932
-14 -92 -21 -556 -177 -783 -263 -359 -137 -890 -377 -1181 -535 -280 -152
-435 -238 -634 -352 -126 -73 -293 -167 -370 -210 -77 -43 -230 -133 -340
-200 -110 -67 -308 -184 -440 -260 -667 -382 -1297 -797 -1326 -873 -25 -63 3
-700 42 -967 21 -151 64 -348 110 -512 16 -56 31 -120 35 -142 6 -37 4 -41
-27 -60 -18 -11 -37 -17 -42 -12 -11 11 -103 277 -147 426 -84 290 -140 662
-147 988 -3 119 -9 217 -13 217 -7 0 -27 -13 -145 -95 -157 -109 -289 -205
-453 -329 -194 -146 -230 -171 -239 -162 -17 17 150 179 323 314 106 82 204
149 374 255 58 36 132 89 165 117 33 28 164 120 290 204 381 253 573 371 900
551 162 89 278 156 392 227 35 21 156 94 270 161 115 68 255 153 313 188 152
94 657 382 855 489 286 153 615 313 807 393 101 42 239 101 308 130 69 30 179
74 245 97 66 23 165 60 220 82 277 110 691 234 930 279 132 25 395 20 531 -10z
m5041 23 c-3 -3 -12 -4 -19 -1 -8 3 -5 6 6 6 11 1 17 -2 13 -5z m-32 -14 c3
-5 1 -10 -4 -10 -6 0 -11 5 -11 10 0 6 2 10 4 10 3 0 8 -4 11 -10z m110 0 c-3
-5 -13 -10 -21 -10 -8 0 -12 -4 -9 -10 3 -5 4 -10 1 -10 -17 0 -13 22 6 29 30
13 30 13 23 1z m-180 -10 c3 -6 -1 -7 -9 -4 -18 7 -21 14 -7 14 6 0 13 -4 16
-10z m122 -63 c1 -18 -1 -23 -4 -12 -3 11 -9 24 -14 30 -13 13 -11 25 4 19 7
-2 13 -19 14 -37z m98 24 c-3 -6 -11 -11 -17 -11 -6 0 -6 6 2 15 14 17 26 13
15 -4z m-10352 -12 c45 -12 86 -24 90 -29 14 -12 46 -146 78 -325 25 -139 32
-213 39 -405 9 -249 11 -264 68 -376 16 -33 47 -113 67 -179 20 -66 55 -172
77 -235 59 -169 59 -159 -5 -197 -65 -39 -75 -40 -81 -10 -30 151 -45 222 -86
397 -55 230 -82 382 -105 579 -40 346 -101 598 -168 696 -11 16 -36 47 -56 68
-42 45 -35 46 82 16z m10437 5 c0 -8 -5 -12 -10 -9 -6 4 -8 11 -5 16 9 14 15
11 15 -7z m-45 -13 c-3 -6 -11 -11 -17 -11 -6 0 -6 6 2 15 14 17 26 13 15 -4z
m-217 -10 c-6 -10 -18 -17 -25 -14 -10 4 -8 9 9 18 13 7 24 13 26 14 1 1 -3
-8 -10 -18z m3 -38 c-12 -20 -14 -14 -5 12 4 9 9 14 11 11 3 -2 0 -13 -6 -23z
m169 17 c0 -5 -5 -10 -11 -10 -5 0 -7 5 -4 10 3 6 8 10 11 10 2 0 4 -4 4 -10z
m-37 -40 c-3 -12 -8 -19 -11 -16 -5 6 5 36 12 36 2 0 2 -9 -1 -20z m-40 -35
c-3 -9 -8 -14 -10 -11 -3 3 -2 9 2 15 9 16 15 13 8 -4z m-83 -50 c0 -2 -10
-10 -22 -16 -21 -11 -22 -11 -9 4 13 16 31 23 31 12z m-13472 -31 c12 -8 22
-24 22 -37 0 -38 58 -262 101 -389 62 -185 92 -256 203 -478 295 -589 375
-954 309 -1415 -14 -102 -19 -114 -58 -170 -45 -63 -92 -112 -100 -104 -2 3 4
34 15 70 85 280 106 544 60 779 -35 185 -143 499 -226 660 -153 296 -243 518
-324 794 -29 102 -80 298 -80 311 0 9 52 -6 78 -21z m2907 -589 c50 -250 122
-743 142 -977 4 -45 2 -68 -5 -68 -17 0 -27 56 -57 300 -19 154 -37 283 -70
510 -51 339 -55 365 -54 390 1 24 1 23 10 -5 5 -16 21 -84 34 -150z m5239
-667 c4 -35 13 -101 21 -148 8 -47 30 -193 50 -325 101 -672 268 -1273 459
-1654 66 -131 123 -214 310 -456 209 -270 431 -476 766 -711 284 -200 490
-322 990 -589 316 -168 490 -268 490 -281 0 -18 -14 -12 -135 56 -117 66 -203
113 -415 225 -331 176 -442 238 -668 379 -388 241 -764 538 -987 779 -96 105
-231 275 -309 392 -261 388 -512 1242 -575 1960 -16 179 -24 448 -13 441 5 -3
12 -34 16 -68z m1182 -15 c-10 -10 -19 5 -10 18 6 11 8 11 12 0 2 -7 1 -15 -2
-18z m-4156 -70 c23 -20 33 -40 37 -71 5 -41 3 -45 -39 -85 -41 -39 -322 -219
-415 -266 -29 -14 -52 -19 -69 -15 -36 9 -101 73 -110 108 -10 40 20 91 76
133 94 69 420 222 477 223 7 0 27 -12 43 -27z m2250 -698 c0 -2 -28 -23 -62
-46 -174 -118 -533 -384 -683 -507 -311 -255 -844 -813 -1424 -1491 -358 -419
-519 -598 -803 -891 -320 -330 -570 -570 -595 -570 -13 0 111 149 138 166 5 2
78 84 162 182 85 97 165 188 178 202 106 109 604 690 1037 1210 325 389 446
522 693 765 271 266 575 512 906 733 51 34 94 62 96 62 2 0 44 24 93 54 92 55
243 135 257 136 4 0 7 -2 7 -5z m-4910 -252 c-1 -45 -88 -72 -565 -173 -289
-62 -442 -99 -595 -146 -197 -61 -508 -212 -701 -339 -167 -112 -168 -112
-245 -309 -21 -54 -40 -94 -42 -88 -4 12 28 143 65 265 31 103 45 118 185 201
129 75 414 216 528 261 113 44 348 113 515 150 66 15 203 47 305 72 176 43
495 110 533 112 9 1 17 -2 17 -6z m8968 -188 c-3 -3 -9 2 -12 12 -6 14 -5 15
5 6 7 -7 10 -15 7 -18z m20 -40 c-3 -3 -9 2 -12 12 -6 14 -5 15 5 6 7 -7 10
-15 7 -18z m20 -40 c-3 -3 -9 2 -12 12 -6 14 -5 15 5 6 7 -7 10 -15 7 -18z
m20 -40 c-3 -3 -9 2 -12 12 -6 14 -5 15 5 6 7 -7 10 -15 7 -18z m46 -81 c3 -8
2 -12 -4 -9 -6 3 -10 10 -10 16 0 14 7 11 14 -7z m98 -144 c7 -14 15 -27 18
-30 16 -14 69 -104 65 -108 -3 -3 -6 -3 -8 -1 -1 2 -16 22 -33 44 -38 51 -114
172 -114 182 1 11 56 -56 72 -87z m-10776 -732 c1 -83 39 -208 106 -345 100
-206 326 -360 803 -548 94 -37 253 -102 355 -144 102 -43 212 -88 245 -101 96
-36 471 -222 580 -288 239 -142 465 -340 605 -527 62 -83 83 -133 87 -210 l5
-70 -59 62 c-32 35 -87 90 -123 124 -36 34 -53 54 -38 45 34 -20 48 -20 48 -1
0 8 7 15 16 15 13 0 14 3 4 15 -7 8 -16 13 -20 10 -5 -3 -11 8 -15 25 -4 16
-10 30 -14 30 -3 0 -15 16 -25 35 -17 31 -86 99 -221 216 -173 152 -428 299
-705 410 -211 84 -208 84 -305 16 -44 -31 -111 -77 -148 -102 -38 -26 -66 -50
-63 -52 3 -3 12 0 21 7 10 8 15 9 15 1 0 -6 -5 -11 -12 -11 -6 0 -8 -3 -5 -6
4 -4 13 -1 21 5 9 7 17 8 20 2 3 -5 0 -11 -6 -14 -7 -2 5 -8 27 -12 51 -9 318
-95 312 -101 -2 -2 -30 5 -63 15 -32 11 -111 33 -174 51 -63 17 -124 36 -135
42 -10 6 -35 13 -55 15 -19 3 -100 26 -180 53 -422 140 -600 241 -781 441
-153 171 -215 269 -244 391 -30 128 -14 335 35 445 28 63 69 133 78 133 4 0 8
-33 8 -72z m13847 -112 c66 -27 114 -111 83 -145 -9 -10 -16 -22 -16 -28 0 -6
-16 -23 -35 -37 -19 -15 -38 -39 -42 -54 -6 -24 -7 -24 -13 -7 -4 11 -3 25 2
32 9 12 -6 28 -19 20 -5 -3 -17 -1 -28 3 -26 9 -77 -8 -68 -23 4 -7 -1 -6 -10
2 -9 7 -17 9 -17 3 0 -5 -8 -12 -17 -16 -10 -3 -24 -9 -31 -12 -10 -4 -13 1
-10 17 1 13 13 28 26 34 12 5 22 15 22 21 0 5 25 18 56 28 95 30 144 54 144
71 0 9 -20 25 -47 38 -41 19 -64 22 -157 20 -287 -4 -372 -57 -452 -283 -16
-44 -24 -57 -25 -40 -1 22 -2 21 -18 -13 -10 -20 -21 -34 -24 -30 -4 3 -7 -1
-7 -10 0 -10 -5 -14 -15 -11 -11 5 -15 -1 -16 -22 -2 -49 -17 54 -18 121 -1
108 47 172 154 206 22 6 56 25 75 40 42 34 101 56 200 74 101 18 281 19 323 1z
m-38 -236 c-3 -5 -12 -10 -18 -10 -7 0 -6 4 3 10 19 12 23 12 15 0z m-155 -44
c0 -2 -7 -19 -15 -37 -11 -27 -14 -29 -15 -12 0 12 -3 28 -6 37 -4 12 0 16 15
16 12 0 21 -2 21 -4z m-507 -302 c-3 -9 0 -14 8 -12 13 3 14 -3 2 -43 -3 -9 3
-23 11 -32 9 -8 16 -23 16 -31 0 -40 89 -146 162 -192 61 -39 36 -42 -27 -3
-68 41 -83 57 -130 134 -34 56 -54 114 -71 195 -6 35 -6 35 14 17 11 -11 18
-25 15 -33z m1046 -118 c10 -12 -5 -23 -86 -65 -72 -37 -116 -68 -166 -118
-52 -51 -64 -60 -50 -36 10 18 21 33 26 33 4 0 7 5 7 10 0 11 3 15 38 55 9 11
38 31 65 44 26 13 47 28 47 32 0 5 18 17 40 26 22 10 40 21 40 25 0 13 27 9
39 -6z m-2299 -61 c-7 -8 -18 -15 -25 -15 -29 0 -106 -74 -149 -142 -89 -144
-127 -299 -92 -382 20 -47 20 -52 2 -37 -31 26 -40 122 -23 231 5 31 65 146
99 190 36 47 64 110 48 110 -4 0 -15 2 -23 5 -7 3 -25 -4 -38 -15 -17 -15 -19
-20 -6 -16 9 3 17 1 17 -4 0 -9 -22 -14 -42 -11 -5 0 -8 -6 -8 -15 0 -8 -4
-12 -10 -9 -5 3 -7 0 -4 -9 3 -9 -3 -20 -15 -28 -12 -7 -21 -17 -21 -22 0 -5
-10 -20 -21 -33 -12 -12 -30 -46 -41 -75 -18 -50 -19 -51 -14 -14 7 52 47 131
92 184 59 69 162 120 248 121 33 1 37 -1 26 -14z m1455 -15 c3 -5 2 -10 -4
-10 -5 0 -13 5 -16 10 -3 6 -2 10 4 10 5 0 13 -4 16 -10z m895 -4 c0 -3 -35
-29 -77 -59 -43 -31 -103 -79 -133 -107 -58 -55 -93 -87 -122 -109 -34 -26
-20 21 20 69 54 64 90 98 149 136 64 42 163 84 163 70z m-2034 -43 c35 -37
114 -179 114 -206 0 -8 9 -22 20 -32 11 -10 20 -25 20 -34 0 -25 -126 -146
-135 -130 -5 7 -4 10 2 6 6 -4 16 0 23 8 10 12 10 18 -1 32 -11 13 -11 17 -1
20 6 3 12 12 11 21 0 14 -3 12 -16 -5 -17 -26 -35 -31 -27 -8 7 18 4 18 -33 4
l-28 -10 33 33 c17 19 32 39 32 44 0 11 -64 123 -108 187 -25 37 -25 39 -9 72
23 48 55 47 103 -2z m1189 9 c-3 -3 -11 0 -18 7 -9 10 -8 11 6 5 10 -3 15 -9
12 -12z m455 -162 c-6 -11 -15 -20 -20 -20 -14 0 -12 6 6 24 21 22 27 20 14
-4z m20 -110 c-6 -11 -13 -20 -16 -20 -2 0 0 9 6 20 6 11 13 20 16 20 2 0 0
-9 -6 -20z m-33 -62 c-3 -8 -6 -5 -6 6 -1 11 2 17 5 13 3 -3 4 -12 1 -19z
m1370 -14 c-3 -3 -12 -4 -19 -1 -8 3 -5 6 6 6 11 1 17 -2 13 -5z m-3078 -25
c-13 -11 -24 -26 -24 -32 0 -7 -5 -12 -12 -12 -15 0 -28 -13 -28 -28 0 -7 -5
-12 -12 -12 -6 0 -32 -15 -57 -34 -32 -24 -42 -37 -34 -43 7 -4 9 -8 3 -9 -5
0 -20 -2 -33 -3 -12 -2 -19 0 -15 4 4 4 40 32 78 62 39 31 86 72 104 92 19 20
39 36 44 36 6 0 -1 -9 -14 -21z m1701 7 c0 -3 -4 -8 -10 -11 -5 -3 -10 -1 -10
4 0 6 5 11 10 11 6 0 10 -2 10 -4z m1009 -80 c-2 -3 -49 -34 -104 -70 -96 -63
-98 -64 -52 -22 50 47 122 93 146 95 8 1 12 -1 10 -3z m-2029 -66 c0 -5 -2
-10 -4 -10 -3 0 -8 5 -11 10 -3 6 -1 10 4 10 6 0 11 -4 11 -10z m-1139 -47
c13 -16 12 -17 -3 -4 -10 7 -18 15 -18 17 0 8 8 3 21 -13z m66 -29 c-3 -3 -12
-4 -19 -1 -8 3 -5 6 6 6 11 1 17 -2 13 -5z m-10047 -66 c10 -6 7 -7 -10 -2
-14 3 -32 11 -40 16 -10 6 -7 7 10 2 14 -3 32 -11 40 -16z m10888 -78 c-26
-40 -34 -47 -39 -33 -7 19 10 52 45 88 35 36 31 2 -6 -55z m-957 4 c-43 -39
-100 -103 -246 -274 -111 -131 -239 -236 -365 -300 -58 -30 -225 -87 -275 -94
-30 -5 -24 -1 25 15 36 12 67 26 68 30 2 5 10 9 19 9 8 0 28 9 44 21 16 11 29
17 29 12 0 -4 6 -1 13 8 7 9 15 17 19 18 5 1 22 4 39 8 17 3 33 12 36 19 3 8
11 14 19 14 8 0 14 4 14 10 0 5 7 7 15 4 10 -4 18 3 25 20 9 24 21 31 45 26 6
-1 7 1 3 5 -9 10 78 75 100 75 12 0 14 3 4 8 -9 6 -5 12 13 22 14 7 25 17 25
21 0 5 12 20 28 35 20 20 22 25 8 20 -16 -5 -17 -4 -6 9 7 8 16 12 21 9 5 -3
8 0 7 8 -2 8 5 12 17 10 15 -2 17 -1 6 6 -10 8 -4 19 28 52 22 23 41 37 41 30
0 -6 22 12 50 42 27 29 50 57 50 61 0 12 48 57 78 73 52 27 54 14 3 -32z
m-9751 6 c8 -5 11 -10 5 -10 -5 0 -17 5 -25 10 -8 5 -10 10 -5 10 6 0 17 -5
25 -10z m10324 -35 c-15 -20 -29 -33 -32 -31 -5 6 40 65 51 65 4 1 -4 -15 -19
-34z m-10254 5 c8 -5 11 -10 5 -10 -5 0 -17 5 -25 10 -8 5 -10 10 -5 10 6 0
17 -5 25 -10z m11055 -9 c-6 -5 -21 -12 -35 -15 -24 -7 -24 -6 -6 8 21 17 57
23 41 7z m-11010 -11 c3 -6 -1 -7 -9 -4 -18 7 -21 14 -7 14 6 0 13 -4 16 -10z
m65 -25 c14 -8 21 -14 15 -14 -5 0 -21 6 -35 14 -14 8 -20 14 -15 14 6 0 21
-6 35 -14z m11820 -5 c0 -5 -12 -10 -27 -10 -61 0 -164 -64 -312 -194 l-24
-21 11 22 c7 11 49 55 94 97 83 77 94 82 213 106 22 4 41 8 43 9 1 0 2 -3 2
-9z m-11720 -40 c8 -5 11 -10 5 -10 -5 0 -17 5 -25 10 -8 5 -10 10 -5 10 6 0
17 -5 25 -10z m200 -96 c0 -2 -13 2 -30 11 -16 9 -30 18 -30 21 0 2 14 -2 30
-11 17 -9 30 -18 30 -21z m13390 -51 c0 -51 -24 -87 -107 -162 -106 -95 -217
-175 -301 -216 -90 -44 -250 -99 -347 -119 -104 -21 -225 -31 -225 -17 0 21
195 102 429 177 248 80 348 124 396 174 27 28 27 30 8 30 -11 0 -65 -14 -119
-31 -209 -64 -716 -184 -889 -209 -44 -7 -100 -16 -124 -20 -50 -9 -71 -4 -71
17 0 33 22 53 78 68 59 17 264 85 409 135 104 36 373 90 653 130 76 11 148 39
170 66 23 26 40 16 40 -23z m-2443 -110 c-2 -16 -4 -5 -4 22 0 28 2 40 4 28 2
-13 2 -35 0 -50z m-2827 3 c0 -7 9 -19 20 -29 11 -9 20 -26 20 -38 0 -12 8
-23 19 -26 12 -3 17 -11 14 -19 -3 -9 2 -14 13 -14 13 0 15 -3 7 -8 -10 -6 -8
-16 6 -42 11 -19 23 -34 28 -33 5 1 8 -16 6 -37 -2 -29 3 -46 21 -67 34 -41
68 -112 60 -126 -4 -7 -3 -9 1 -4 13 11 43 -42 38 -66 -3 -16 -2 -18 5 -9 7
10 21 -3 57 -53 26 -37 67 -90 91 -117 47 -52 59 -76 21 -40 -13 12 -27 19
-31 15 -4 -5 -6 -3 -4 2 2 6 -1 11 -7 13 -40 12 -181 201 -171 228 3 9 1 12
-4 9 -6 -4 -26 28 -46 72 -54 117 -101 217 -153 323 -59 121 -58 118 -32 96
11 -11 21 -24 21 -30z m733 7 c-3 -7 -9 -13 -15 -13 -5 0 -6 5 -2 12 5 8 2 9
-10 5 -9 -4 -15 -3 -11 2 9 15 44 9 38 -6z m-63 -18 c0 -2 -10 -9 -22 -15 -22
-11 -22 -10 -4 4 21 17 26 19 26 11z m13 -28 c3 -8 -5 -14 -21 -15 -25 -2 -25
-2 -6 13 23 18 21 17 27 2z m-77 -12 c-11 -8 -25 -15 -30 -15 -6 1 0 7 14 15
32 19 40 18 16 0z m2264 -19 c0 -2 -8 -10 -17 -17 -16 -13 -17 -12 -4 4 13 16
21 21 21 13z m-2255 -16 c-3 -5 -12 -10 -18 -10 -7 0 -6 4 3 10 19 12 23 12
15 0z m-105 -10 c-8 -5 -19 -10 -25 -10 -5 0 -3 5 5 10 8 5 20 10 25 10 6 0 3
-5 -5 -10z m-300 -46 c0 -2 -9 0 -20 6 -11 6 -20 13 -20 16 0 2 9 0 20 -6 11
-6 20 -13 20 -16z m3600 -129 c0 -40 -195 -211 -336 -295 -102 -60 -177 -93
-379 -166 -88 -31 -182 -65 -210 -75 l-50 -19 72 5 c206 13 545 139 718 267
39 28 107 90 152 137 64 65 84 81 89 68 12 -32 -36 -145 -92 -214 -41 -50
-140 -126 -214 -163 -68 -34 -224 -85 -322 -104 -73 -15 -524 -79 -648 -92
-36 -4 -240 -8 -455 -10 -412 -4 -467 -6 -475 -15 -8 -8 -100 -27 -95 -19 3 5
-2 11 -11 14 -9 4 -14 13 -10 21 3 8 1 15 -4 15 -6 0 -10 -9 -10 -20 0 -11 5
-20 10 -20 6 0 10 -5 10 -12 0 -6 -3 -8 -6 -5 -4 4 -14 -8 -23 -25 -40 -78
-100 -87 -551 -88 -352 0 -496 11 -560 43 -41 20 -50 32 -97 127 -29 58 -52
109 -53 114 0 5 38 5 93 0 191 -18 403 -9 692 31 430 59 559 60 865 10 445
-73 495 -76 735 -50 234 26 301 50 663 237 243 126 312 169 399 252 66 64 103
82 103 51z m-3603 -41 c-3 -3 -12 -4 -19 -1 -8 3 -5 6 6 6 11 1 17 -2 13 -5z"/>
<path d="M19795 14519 c-4 -5 -2 -23 5 -39 8 -19 11 -72 8 -157 -3 -109 -7
-134 -26 -171 -29 -55 -100 -126 -197 -198 -17 -12 -13 -12 20 1 94 37 163
105 212 211 27 56 28 67 28 202 0 116 -3 145 -15 152 -20 13 -27 12 -35 -1z"/>
<path d="M18773 13440 c-150 -32 -241 -125 -249 -255 -10 -177 167 -305 422
-305 81 0 97 3 152 31 118 58 171 152 159 280 -10 109 -65 182 -173 230 -38
17 -73 22 -159 25 -60 2 -129 -1 -152 -6z"/>
<path d="M20736 8603 c-6 -14 -5 -15 5 -6 7 7 10 15 7 18 -3 3 -9 -2 -12 -12z"/>
<path d="M29440 3220 c-13 -8 -12 -10 3 -10 9 0 17 5 17 10 0 12 -1 12 -20 0z"/>
<path d="M29787 1182 c-22 -25 -22 -35 2 -23 10 6 21 7 25 4 9 -9 7 10 -2 25
-7 10 -12 8 -25 -6z"/>
<path d="M29735 1150 c3 -5 11 -10 16 -10 6 0 7 5 4 10 -3 6 -11 10 -16 10 -6
0 -7 -4 -4 -10z"/>
<path d="M33190 18793 c-225 -24 -483 -126 -666 -262 -101 -75 -251 -230 -308
-319 -52 -79 -142 -256 -179 -352 -92 -233 -137 -520 -137 -867 l0 -184 -62
-27 c-140 -58 -312 -153 -424 -234 -190 -138 -423 -384 -566 -598 -78 -117
-201 -366 -242 -491 -174 -524 -175 -1257 -5 -1832 58 -195 181 -477 283 -651
159 -270 499 -577 882 -794 286 -163 729 -343 1019 -415 508 -127 1165 -96
1680 78 196 66 434 181 603 291 297 193 576 500 779 859 250 440 382 1037 333
1505 -52 494 -201 933 -439 1296 -136 209 -221 306 -492 561 l-66 62 -6 163
c-13 323 -84 641 -219 986 -205 523 -454 813 -890 1037 -171 88 -240 115 -375
149 -165 41 -351 55 -503 39z m252 -297 c144 -31 279 -95 446 -209 105 -72
252 -200 242 -211 -3 -3 -53 29 -110 70 -335 242 -580 325 -915 311 -209 -9
-360 -60 -524 -179 -114 -82 -119 -85 -76 -39 43 46 169 133 250 174 78 39
225 86 301 96 89 13 300 5 386 -13z m123 -380 c232 -62 392 -216 549 -532 70
-140 83 -174 160 -443 72 -247 89 -341 62 -341 -9 0 -89 20 -178 44 -431 117
-535 130 -985 131 l-363 0 0 108 c0 284 31 626 65 710 51 125 148 241 240 290
92 47 143 57 270 53 66 -2 147 -11 180 -20z m-1205 -106 c10 -5 27 -24 38 -42
22 -37 22 -40 -52 -353 -55 -232 -102 -654 -75 -670 8 -6 7 -10 -2 -16 -12 -7
-12 -11 -1 -18 10 -6 6 -11 -15 -19 -58 -22 -97 -32 -121 -32 l-25 0 6 223 c7
274 28 418 93 639 32 111 66 198 99 254 28 48 28 48 55 34z m269 -282 c11 -17
10 -23 -3 -36 -13 -14 -16 -12 -27 14 -6 16 -15 37 -20 46 -8 15 -6 16 14 7
13 -6 29 -20 36 -31z m2029 -435 c-8 -10 -18 -26 -21 -35 -3 -10 5 -116 19
-235 34 -293 41 -553 20 -748 -20 -186 -83 -492 -107 -521 -5 -6 -5 -15 -1
-20 4 -5 -3 -1 -14 9 -12 10 -32 37 -44 61 l-23 42 27 106 c36 143 49 386 36
668 -10 205 -17 276 -46 469 l-16 103 23 24 c26 25 137 94 152 94 6 0 3 -8 -5
-17z m-2050 -313 c7 -11 9 -19 5 -18 -5 0 -16 -2 -26 -7 -21 -9 -43 8 -32 25
4 6 14 9 22 6 8 -3 11 -1 8 4 -3 6 -2 10 2 10 5 0 14 -9 21 -20z m862 -201
c63 -6 169 -19 235 -30 149 -25 633 -148 650 -166 34 -34 30 -304 -5 -370 -11
-21 -23 -52 -26 -70 -3 -18 -10 -36 -15 -38 -4 -3 -39 39 -78 92 -76 108 -105
138 -138 146 -37 8 -47 -16 -25 -60 11 -21 52 -114 92 -208 39 -93 86 -197
103 -230 44 -83 153 -189 257 -249 47 -27 110 -65 140 -86 30 -21 102 -63 160
-95 58 -32 106 -58 107 -59 3 -2 -56 -153 -104 -266 -53 -127 -209 -432 -280
-545 -165 -266 -361 -491 -522 -599 -68 -45 -281 -156 -301 -156 -6 0 -8 -5
-4 -12 5 -7 3 -8 -5 -3 -16 9 -92 -25 -84 -38 4 -6 1 -7 -6 -3 -19 12 -63 -2
-54 -17 4 -7 8 -15 9 -19 1 -5 2 -11 3 -15 1 -5 6 -1 11 7 7 12 11 10 19 -10
l10 -25 0 27 c1 19 5 26 15 22 8 -3 12 -16 9 -32 -3 -24 -2 -25 6 -6 5 12 17
24 26 27 9 4 13 3 10 -3 -8 -12 5 -13 24 -1 11 7 7 13 -16 25 -17 8 -33 13
-35 11 -3 -3 -5 1 -5 9 0 13 4 13 29 0 16 -8 32 -13 37 -10 4 3 7 -6 5 -20 -2
-23 1 -25 22 -21 13 2 24 0 24 -4 0 -5 -9 -9 -19 -9 -11 0 -23 -5 -26 -11 -4
-6 -14 -8 -22 -5 -8 3 -11 1 -8 -4 3 -6 13 -10 22 -10 9 0 13 -6 10 -14 -7
-17 16 -39 28 -28 5 4 5 2 1 -5 -4 -7 -14 -9 -23 -6 -10 4 -14 2 -10 -4 4 -6
-3 -8 -18 -5 -15 2 -25 0 -25 -7 0 -7 5 -9 10 -6 6 3 10 1 10 -5 0 -6 -10 -15
-22 -20 -13 -5 -18 -9 -13 -10 6 0 -8 -9 -30 -19 -22 -11 -34 -20 -27 -20 9
-1 11 -8 7 -22 -5 -16 -4 -20 6 -15 8 4 6 1 -4 -7 -10 -8 -27 -13 -37 -10 -15
4 -20 0 -20 -15 0 -24 -47 -37 -69 -19 -12 10 -13 9 -6 -2 6 -11 4 -13 -8 -8
-11 4 -17 1 -17 -8 0 -8 8 -12 20 -10 17 3 19 1 9 -17 -11 -20 -11 -20 -36 4
l-26 23 17 -27 c17 -26 17 -26 -3 -21 -12 3 -18 10 -14 17 4 8 3 8 -6 0 -20
-18 -3 -42 27 -36 25 5 26 4 9 -12 -9 -10 -14 -22 -11 -28 4 -6 -2 -5 -15 1
-15 8 -27 9 -40 1 -16 -8 -22 -6 -30 7 -9 16 -10 16 -11 -4 0 -12 5 -25 10
-28 6 -3 10 -11 10 -17 0 -5 -9 0 -19 13 l-20 24 2 -25 c1 -14 8 -30 17 -37
13 -11 13 -12 -2 -13 -12 0 -16 -6 -13 -21 3 -12 1 -18 -3 -15 -4 4 -7 13 -7
19 0 15 -35 17 -54 3 -11 -8 -13 -8 -7 2 11 18 -9 15 -27 -5 -13 -15 -13 -21
-3 -35 7 -10 18 -18 24 -18 5 0 12 -7 16 -15 4 -10 -1 -15 -14 -15 -11 0 -20
-4 -20 -9 0 -11 -67 -19 -82 -10 -18 11 -38 -10 -38 -38 0 -25 1 -25 25 -9 18
12 25 13 25 4 0 -20 -12 -32 -52 -53 -20 -10 -34 -24 -30 -29 3 -6 -1 -6 -9 1
-11 9 -19 7 -38 -8 -13 -11 -21 -23 -17 -27 4 -4 14 1 21 11 10 14 15 15 21 6
4 -7 2 -15 -4 -17 -7 -2 -12 -11 -12 -20 0 -15 2 -15 11 -2 9 13 10 13 6 0 -2
-8 -16 -16 -30 -18 -15 -2 -27 -8 -27 -13 0 -6 -5 -7 -11 -4 -6 4 -17 -1 -25
-11 -9 -11 -12 -13 -8 -5 5 9 3 12 -5 7 -6 -4 -9 -11 -6 -16 8 -13 -6 -40 -21
-40 -8 0 -14 -7 -14 -16 0 -13 -3 -14 -13 -5 -8 6 -17 8 -20 5 -4 -4 -16 -7
-27 -8 -11 0 -20 -5 -19 -11 0 -5 5 -9 10 -8 4 2 6 -3 3 -11 -3 -8 3 -16 15
-19 12 -3 21 -11 20 -19 0 -10 -2 -10 -6 0 -2 6 -21 12 -40 12 -25 0 -34 -4
-30 -13 4 -11 -4 -13 -35 -10 -37 4 -40 2 -35 -16 3 -14 0 -21 -10 -21 -8 0
-11 4 -8 10 8 13 -36 8 -51 -5 -7 -5 -10 -13 -7 -17 2 -5 -3 -8 -11 -8 -9 0
-21 -9 -28 -20 -7 -11 -16 -20 -21 -20 -4 0 -6 4 -3 9 3 4 -15 8 -39 7 -25 0
-45 -4 -45 -8 0 -4 6 -8 13 -9 6 0 1 -6 -13 -12 -14 -6 -28 -16 -32 -22 -5 -6
-8 -3 -8 7 0 9 -5 20 -12 24 -8 5 -9 0 -5 -15 5 -19 3 -20 -11 -9 -9 7 -13 8
-10 3 11 -19 -9 -37 -43 -40 -47 -4 -46 -4 -25 -20 11 -8 17 -18 13 -21 -12
-12 -38 18 -31 38 5 16 1 18 -20 14 -16 -3 -26 1 -29 10 -3 8 -4 7 -3 -3 1
-10 8 -17 14 -16 7 2 12 -2 12 -8 0 -17 72 -77 87 -72 7 3 13 3 13 0 0 -14
-32 -14 -47 1 -16 16 -16 16 -10 -2 5 -12 3 -22 -5 -27 -13 -8 -12 -8 38 -24
8 -3 12 -10 8 -16 -4 -8 -3 -9 4 -5 7 4 12 2 12 -3 0 -6 11 -11 25 -11 16 0
25 -6 25 -15 0 -16 14 -24 45 -29 9 -1 20 -7 23 -13 4 -6 27 -20 52 -30 25
-11 59 -26 75 -34 17 -7 35 -13 40 -14 6 0 16 -4 22 -8 7 -4 29 -9 49 -11 20
-2 39 -8 43 -13 6 -11 77 -28 99 -24 6 1 12 -3 12 -10 0 -8 4 -8 15 1 8 6 19
8 26 4 7 -4 28 -8 47 -10 19 -2 37 -6 40 -9 9 -9 -139 -6 -226 5 -94 12 -278
71 -275 88 2 6 -4 9 -12 6 -21 -8 -181 71 -295 147 -279 183 -466 367 -645
634 -130 194 -272 514 -359 805 -149 501 -124 1011 75 1513 109 274 309 576
532 802 138 140 139 147 6 59 -284 -191 -436 -363 -593 -673 -155 -306 -228
-560 -258 -898 -24 -272 36 -686 141 -969 105 -285 269 -616 393 -796 10 -14
18 -28 18 -31 0 -14 -35 -15 -60 -2 -18 9 -31 11 -35 5 -4 -7 -12 -7 -25 0
-25 13 -40 12 -17 -1 21 -12 23 -33 2 -25 -8 3 -15 1 -15 -4 0 -6 6 -10 13
-10 6 0 4 -5 -6 -11 -9 -6 -27 -7 -40 -3 -21 6 -21 6 3 -14 14 -11 22 -24 18
-28 -4 -4 -15 -1 -25 7 -9 8 -5 -2 9 -21 33 -42 124 -130 136 -130 4 0 21 -18
38 -40 16 -22 35 -40 42 -40 7 0 10 -5 7 -10 -4 -6 4 -20 17 -31 l23 -20 -25
12 c-63 31 -221 153 -310 240 -234 228 -443 579 -535 899 -78 274 -114 518
-122 830 -10 425 42 756 173 1086 178 452 469 773 899 990 77 39 190 87 250
107 413 137 967 191 1485 146z m2060 -978 c204 -269 371 -718 436 -1166 24
-169 24 -517 0 -680 -54 -358 -217 -782 -396 -1030 -247 -340 -534 -591 -855
-745 -112 -54 -322 -133 -339 -127 -6 2 7 10 29 17 57 18 206 84 300 132 266
136 576 409 756 667 132 188 283 561 338 831 32 156 43 293 44 520 1 239 -14
383 -64 611 -69 321 -196 620 -363 862 -231 334 -226 325 -226 387 0 31 3 60
7 64 12 12 251 -234 333 -343z m-530 -527 c0 -8 -4 -12 -10 -9 -5 3 -10 10
-10 16 0 5 5 9 10 9 6 0 10 -7 10 -16z m40 -35 c0 -6 -4 -7 -10 -4 -5 3 -10
11 -10 16 0 6 5 7 10 4 6 -3 10 -11 10 -16z m54 -25 c5 -14 4 -15 -9 -4 -17
14 -19 20 -6 20 5 0 12 -7 15 -16z m-1095 -1383 c7 -5 9 -11 5 -14 -5 -3 -15
1 -22 9 -14 16 -5 18 17 5z m-74 -49 c-3 -3 -11 0 -18 7 -9 10 -8 11 6 5 10
-3 15 -9 12 -12z m-91 -26 c17 -8 22 -15 14 -18 -7 -3 -22 3 -32 13 -23 23
-18 24 18 5z m-26 -43 c-4 -22 -64 -24 -64 -2 0 18 35 14 49 -5 5 -7 7 -2 4
12 -3 12 -1 20 4 16 6 -3 9 -13 7 -21z m26 -52 c-9 -10 -26 18 -18 30 5 9 9 8
14 -7 4 -10 6 -21 4 -23z m-44 -1 c-10 -19 -30 -28 -30 -14 0 6 30 33 38 34 1
0 -2 -9 -8 -20z m-30 -44 c0 -6 -7 -2 -15 8 -8 11 -15 25 -15 30 0 6 7 2 15
-8 8 -11 15 -25 15 -30z m-300 -370 c0 -2 -8 -10 -17 -17 -16 -13 -17 -12 -4
4 13 16 21 21 21 13z m-90 -66 c0 -5 -2 -10 -4 -10 -3 0 -8 5 -11 10 -3 6 -1
10 4 10 6 0 11 -4 11 -10z m-63 -27 c-3 -3 -11 -2 -17 2 -9 6 -9 10 1 16 14 8
27 -7 16 -18z m-43 0 c4 -5 13 -8 19 -8 5 0 12 -6 15 -13 3 -10 -3 -10 -27 2
-30 16 -39 26 -23 26 5 0 12 -3 16 -7z m-81 -148 c-3 -9 -8 -14 -10 -11 -3 3
-2 9 2 15 9 16 15 13 8 -4z m-18 -26 c11 -16 1 -19 -13 -3 -7 8 -8 14 -3 14 5
0 13 -5 16 -11z m-15 -14 c0 -2 -9 -3 -19 -2 -11 0 -18 5 -15 9 4 6 34 0 34
-7z m-250 -195 c0 -5 -5 -10 -11 -10 -5 0 -7 5 -4 10 3 6 8 10 11 10 2 0 4 -4
4 -10z m-336 -185 c-4 -8 -8 -15 -10 -15 -2 0 -4 7 -4 15 0 8 4 15 10 15 5 0
7 -7 4 -15z m-144 -65 c0 -5 -5 -10 -11 -10 -5 0 -7 5 -4 10 3 6 8 10 11 10 2
0 4 -4 4 -10z m1057 -306 c-3 -3 -12 -4 -19 -1 -8 3 -5 6 6 6 11 1 17 -2 13
-5z m610 -240 c-3 -3 -12 -4 -19 -1 -8 3 -5 6 6 6 11 1 17 -2 13 -5z"/>
<path d="M33500 13669 c-12 -8 -10 -9 8 -4 13 4 29 1 37 -5 12 -10 15 -9 15 4
0 18 -36 22 -60 5z"/>
<path d="M33404 13658 c10 -6 22 -6 26 -2 5 5 -3 10 -18 11 -22 1 -24 0 -8 -9z"/>
<path d="M33679 13626 c10 -11 7 -18 -11 -31 l-23 -17 25 6 c14 3 31 6 38 6
15 0 -17 49 -32 50 -5 0 -3 -6 3 -14z"/>
<path d="M33580 13520 c0 -5 7 -7 15 -4 8 4 15 8 15 10 0 2 -7 4 -15 4 -8 0
-15 -4 -15 -10z"/>
<path d="M33575 13470 c3 -5 10 -10 16 -10 5 0 9 5 9 10 0 6 -7 10 -16 10 -8
0 -12 -4 -9 -10z"/>
<path d="M32981 13022 c-10 -10 -7 -11 16 -6 37 9 48 19 19 19 -13 0 -29 -6
-35 -13z"/>
<path d="M32961 12984 c0 -11 3 -14 6 -6 3 7 2 16 -1 19 -3 4 -6 -2 -5 -13z"/>
<path d="M33030 12970 c-9 -6 -10 -10 -3 -10 6 0 15 5 18 10 8 12 4 12 -15 0z"/>
<path d="M32901 12844 c13 -16 29 -19 29 -5 0 5 -9 11 -21 14 -16 4 -18 3 -8
-9z"/>
<path d="M32492 12635 c-11 -12 -10 -15 3 -15 8 0 15 7 15 15 0 18 -2 18 -18
0z"/>
<path d="M32498 12593 c7 -3 16 -2 19 1 4 3 -2 6 -13 5 -11 0 -14 -3 -6 -6z"/>
<path d="M32323 12472 c1 -14 5 -18 11 -12 7 7 6 14 -1 21 -9 9 -12 7 -10 -9z"/>
<path d="M22565 18350 c-167 -14 -312 -37 -509 -81 -165 -36 -211 -49 -176
-49 19 0 256 -146 325 -201 126 -99 210 -205 304 -380 109 -205 172 -403 227
-709 39 -222 38 -330 -3 -485 -50 -184 -54 -212 -63 -465 -10 -273 -12 -281
-121 -552 l-72 -177 26 -39 c47 -72 124 -236 177 -377 29 -77 62 -160 74 -185
20 -43 23 -45 68 -48 47 -3 153 19 563 117 116 27 320 71 455 96 294 55 358
71 388 99 13 12 58 79 100 151 64 108 95 148 182 235 152 153 249 196 502 225
183 21 268 39 403 86 168 57 233 70 364 71 116 1 188 -9 375 -54 150 -36 208
-31 361 29 179 70 222 84 282 90 114 12 250 -39 508 -191 72 -42 147 -82 169
-88 34 -11 40 -10 53 8 10 13 12 33 8 64 -14 104 -68 416 -88 507 l-22 98
-235 1 c-241 0 -306 7 -550 55 -338 67 -728 206 -975 349 -199 114 -342 241
-633 558 -503 549 -871 837 -1329 1041 -369 164 -755 232 -1138 201z"/>
<path d="M13678 16750 c-100 -12 -173 -36 -275 -91 l-91 -49 -214 3 c-196 2
-220 0 -298 -21 -46 -13 -141 -50 -210 -82 -86 -40 -156 -65 -225 -79 -282
-61 -368 -97 -500 -210 -165 -142 -281 -320 -406 -623 -112 -273 -172 -580
-186 -954 -6 -157 10 -477 27 -559 5 -22 7 -41 5 -43 -8 -9 -161 -38 -505 -98
-379 -65 -744 -135 -812 -156 -21 -6 -40 -19 -43 -29 -18 -57 42 -504 97 -723
49 -195 86 -252 158 -243 52 7 331 58 810 148 571 108 620 117 620 108 0 -3
-6 -25 -14 -47 -21 -58 -54 -269 -62 -387 -17 -276 77 -650 293 -1160 153
-363 327 -632 611 -948 466 -519 853 -663 1377 -512 95 28 299 106 450 172
117 52 168 64 290 69 123 5 187 23 244 69 189 151 381 621 432 1055 21 184 -2
472 -56 705 -9 39 -41 163 -72 277 l-56 207 32 88 c100 270 141 429 178 693
22 160 25 709 5 870 -66 521 -199 1011 -393 1441 -98 219 -261 530 -342 651
-185 281 -395 428 -653 458 -98 11 -119 11 -216 0z m307 -195 c199 -52 388
-280 601 -723 104 -217 249 -653 259 -777 l5 -60 -18 60 c-77 246 -147 417
-256 630 -174 336 -213 395 -381 579 -115 125 -159 160 -227 176 -74 17 -241
12 -350 -10 -97 -20 -101 -20 -131 -2 -18 10 -32 26 -32 37 0 26 89 71 175 89
90 20 281 20 355 1z m-843 -136 c63 -14 172 -80 234 -143 53 -53 75 -72 136
-118 37 -29 54 -35 43 -19 -3 5 0 13 6 16 18 12 139 -121 212 -232 106 -160
181 -317 292 -609 80 -209 102 -303 112 -469 5 -96 -5 -91 -36 15 -80 273
-229 638 -339 830 -56 97 -188 299 -249 380 -51 67 -181 197 -233 231 l-45 30
-301 -7 c-346 -8 -373 -4 -278 44 32 16 77 35 99 42 89 29 233 33 347 9z
m-500 -242 c106 -49 185 -105 253 -179 59 -64 236 -326 340 -500 31 -54 61
-98 65 -98 20 0 18 47 -2 74 -19 27 -20 29 -2 22 10 -5 26 -10 35 -13 23 -7
120 -215 164 -353 43 -133 113 -390 155 -570 96 -409 137 -792 127 -1175 -7
-247 -17 -353 -53 -570 -48 -285 -94 -454 -135 -491 l-21 -19 4 40 c3 22 17
94 32 160 33 148 59 332 82 575 40 445 -11 969 -155 1583 -45 190 -184 571
-258 707 -49 91 -193 308 -275 417 -165 218 -340 355 -521 408 -31 9 -57 19
-57 22 0 3 33 3 73 1 54 -4 91 -14 149 -41z m1532 -61 c124 -188 246 -410 233
-423 -8 -7 -52 57 -105 152 -27 50 -84 147 -126 217 -42 70 -79 135 -83 145
-14 37 27 -9 81 -91z m480 -935 c14 -27 35 -82 45 -123 11 -40 24 -86 30 -101
13 -35 14 -70 2 -62 -5 3 -17 27 -27 53 -9 26 -25 56 -35 67 -17 19 -37 85
-57 188 -11 58 2 51 42 -22z m214 -223 c16 -20 27 -108 13 -108 -13 0 -25 28
-35 83 -7 37 2 48 22 25z m-2300 -403 c172 -51 263 -260 293 -675 7 -94 7
-170 1 -215 l-9 -70 -2 60 c-2 99 -30 302 -56 409 -34 135 -88 247 -158 322
-67 72 -129 108 -221 126 -39 8 -72 20 -74 26 -10 32 138 43 226 17z m-256
-602 c6 -16 11 -46 12 -68 l1 -40 -95 -13 c-136 -18 -414 -65 -720 -122 -146
-27 -346 -63 -445 -80 -99 -17 -324 -58 -500 -91 -176 -32 -332 -59 -347 -59
-22 0 -31 7 -44 38 -9 20 -18 54 -21 74 -5 35 -4 37 33 47 22 5 188 35 369 66
182 31 445 76 585 101 140 24 334 55 430 69 96 14 270 41 385 60 339 55 341
56 357 18z m-1725 -599 c-3 -3 -12 -4 -19 -1 -8 3 -5 6 6 6 11 1 17 -2 13 -5z
m-172 -35 c-135 -27 -235 -39 -155 -18 56 15 243 47 270 47 14 0 -38 -13 -115
-29z m1451 -305 c7 -27 28 -91 48 -143 21 -51 35 -96 32 -98 -14 -15 -40 14
-67 73 -17 37 -34 63 -38 58 -14 -16 -71 -163 -71 -182 0 -47 72 -102 134
-102 74 0 111 -37 70 -71 -20 -16 -144 -56 -201 -65 -40 -6 -43 -4 -53 21 -16
41 -12 151 10 266 21 115 28 139 60 219 38 96 58 103 76 24z m107 -694 c25
-20 73 -137 61 -149 -8 -8 -346 -6 -367 2 -14 5 -16 11 -7 27 17 32 50 43 150
49 l95 6 3 43 c4 49 23 55 65 22z"/>
<path d="M30551 16044 c0 -11 3 -14 6 -6 3 7 2 16 -1 19 -3 4 -6 -2 -5 -13z"/>
<path d="M17296 12885 c-3 -8 -1 -25 4 -37 8 -20 9 -18 9 15 1 39 -3 47 -13
22z"/>
<path d="M17298 12685 c-4 -42 -15 -82 -32 -115 -14 -27 -26 -54 -26 -60 0 -5
-9 -19 -19 -29 -19 -19 -20 -19 -36 17 -9 20 -24 51 -32 68 -11 20 -14 46 -11
75 l5 44 -121 -121 c-92 -92 -152 -141 -251 -206 -240 -158 -449 -255 -600
-279 -69 -10 -92 -9 -163 5 -102 21 -154 43 -328 142 -74 42 -137 74 -141 71
-3 -4 2 -55 11 -114 51 -338 58 -410 59 -613 1 -237 -16 -380 -68 -595 -111
-458 -313 -821 -554 -996 -58 -43 -161 -94 -241 -122 -87 -30 -119 -36 -215
-41 -50 -3 -97 -14 -165 -41 -318 -125 -424 -159 -621 -199 -446 -91 -709 -45
-1059 184 -147 96 -255 196 -504 465 -260 281 -527 703 -713 1125 -109 247
-238 590 -306 810 -35 114 -97 340 -97 356 0 17 -30 26 -46 13 -20 -17 -17
-64 11 -197 68 -316 154 -570 290 -857 26 -55 61 -129 77 -165 125 -271 242
-481 408 -730 53 -80 142 -224 197 -320 128 -223 215 -361 302 -480 194 -265
312 -432 342 -485 l32 -58 -124 83 c-330 220 -770 576 -1163 939 -245 226
-390 394 -716 826 -227 300 -291 375 -321 375 -49 0 -231 -104 -489 -278 -219
-148 -303 -216 -432 -350 -145 -151 -192 -230 -248 -412 -18 -58 -42 -120 -53
-139 l-20 -33 20 -42 c12 -23 47 -75 80 -116 176 -221 1084 -1153 1171 -1202
28 -17 52 -32 52 -33 0 -2 -53 -46 -117 -98 -187 -149 -273 -243 -400 -437
-98 -150 -193 -388 -232 -585 -32 -160 -54 -450 -48 -605 23 -508 130 -794
442 -1180 179 -222 379 -396 594 -516 170 -95 197 -101 411 -99 193 2 351 18
800 80 320 45 396 52 635 65 234 12 228 11 455 57 156 31 187 34 285 30 195
-9 374 -73 463 -165 62 -65 133 -184 197 -334 70 -163 145 -385 145 -428 0
-63 4 -64 136 -51 66 7 191 23 279 36 88 13 266 38 395 55 129 17 314 42 410
55 596 82 712 90 787 54 91 -44 138 -135 164 -318 30 -214 69 -598 69 -688 0
-103 -13 -134 -81 -198 -73 -68 -111 -81 -329 -110 -107 -14 -222 -30 -255
-35 -238 -38 -611 -86 -1131 -146 -77 -9 -80 -12 -65 -79 17 -75 59 -117 212
-211 244 -151 516 -273 1191 -534 187 -73 430 -148 786 -245 210 -58 384 -105
386 -105 2 0 -21 57 -51 128 -159 368 -235 640 -269 972 -19 189 -14 592 11
875 17 196 33 379 44 507 7 90 11 102 49 160 73 113 97 197 128 443 22 184 23
383 0 505 -27 149 -95 415 -121 474 -13 29 -56 102 -95 162 -119 179 -228 418
-304 664 -246 797 -256 832 -319 1085 -130 519 -183 875 -194 1315 -6 276 13
485 72 780 61 301 103 432 243 755 219 508 457 878 785 1223 158 165 193 209
246 311 52 100 91 271 62 271 -4 0 -11 -29 -13 -65z"/>
<path d="M30970 10764 c-14 -3 -77 -11 -140 -20 -439 -59 -739 -154 -962 -306
-145 -98 -350 -292 -474 -449 -74 -94 -180 -273 -235 -400 -53 -121 -163 -429
-156 -436 7 -6 44 3 467 110 184 46 416 103 515 126 216 50 328 81 580 161
250 80 560 162 778 205 446 88 581 75 777 -71 100 -75 304 -278 380 -379 208
-274 410 -716 466 -1020 27 -143 27 -513 0 -635 -29 -134 -82 -284 -151 -425
-104 -213 -197 -342 -353 -484 -209 -191 -270 -220 -812 -380 -302 -89 -888
-267 -926 -281 -16 -6 -96 -31 -178 -56 -83 -25 -152 -46 -154 -48 -2 -2 60
-133 137 -290 l141 -285 73 -63 c252 -220 531 -319 857 -305 159 7 391 66 621
158 668 265 1040 636 1479 1474 75 143 129 281 200 509 95 306 186 530 269
656 50 76 167 197 288 297 167 137 219 214 274 407 51 178 72 332 73 526 1
300 -42 459 -221 815 -150 298 -315 475 -548 590 -253 125 -409 129 -778 21
-65 -18 -140 -47 -167 -64 -64 -40 -152 -72 -198 -72 -48 0 -103 22 -292 114
-340 167 -595 239 -1006 286 -165 18 -537 27 -624 14z"/>
<path d="M30995 9030 l-80 -6 105 -3 c58 -1 112 -4 120 -5 8 -1 29 1 45 5 24
5 18 7 -27 8 -31 0 -62 2 -70 4 -7 2 -49 0 -93 -3z"/>
<path d="M30760 9004 c-108 -17 -323 -64 -332 -73 -13 -12 56 -5 80 8 13 7 30
10 37 7 8 -3 15 -1 17 4 2 5 21 11 44 13 23 2 45 6 50 9 9 6 57 11 82 9 8 -1
10 -6 6 -13 -4 -7 1 -6 12 3 10 9 25 14 32 12 6 -3 12 0 12 6 0 6 12 11 28 12
15 1 38 5 52 9 24 8 24 8 -5 8 -16 -1 -68 -7 -115 -14z"/>
<path d="M30575 8930 c3 -5 8 -10 11 -10 2 0 4 5 4 10 0 6 -5 10 -11 10 -5 0
-7 -4 -4 -10z"/>
<path d="M31232 8898 c2 -6 10 -14 16 -16 7 -2 10 2 6 12 -7 18 -28 22 -22 4z"/>
<path d="M31290 8881 c0 -6 4 -13 10 -16 6 -3 7 1 4 9 -7 18 -14 21 -14 7z"/>
<path d="M30676 8633 c-3 -3 -2 -12 1 -21 5 -11 3 -13 -7 -7 -9 5 -11 4 -6 -3
5 -8 13 -9 24 -2 43 24 44 27 18 32 -14 3 -28 3 -30 1z"/>
<path d="M30575 8610 c-3 -5 -1 -10 4 -10 6 0 11 5 11 10 0 6 -2 10 -4 10 -3
0 -8 -4 -11 -10z"/>
<path d="M30120 8594 c0 -8 5 -12 10 -9 6 4 8 11 5 16 -9 14 -15 11 -15 -7z"/>
<path d="M30155 8530 c3 -6 1 -10 -4 -10 -6 0 -11 -5 -11 -11 0 -8 4 -9 13 0
8 6 17 8 20 4 4 -3 7 -2 7 4 0 6 -7 14 -16 17 -8 3 -12 2 -9 -4z"/>
<path d="M30605 8529 c-4 -6 -4 -13 -1 -16 3 -4 6 -1 6 5 0 6 7 9 17 5 11 -4
14 -3 9 5 -9 15 -23 15 -31 1z"/>
<path d="M30240 8500 c-8 -5 -12 -12 -9 -15 4 -3 12 1 19 10 14 17 11 19 -10
5z"/>
<path d="M30425 8430 c-16 -7 -17 -9 -3 -9 9 -1 20 4 23 9 7 11 7 11 -20 0z"/>
<path d="M30358 8403 c7 -3 16 -2 19 1 4 3 -2 6 -13 5 -11 0 -14 -3 -6 -6z"/>
<path d="M30320 8390 c0 -5 5 -10 11 -10 5 0 7 5 4 10 -3 6 -8 10 -11 10 -2 0
-4 -4 -4 -10z"/>
<path d="M30223 8316 c-13 -6 -23 -14 -23 -18 0 -4 -7 -5 -15 -2 -11 5 -13 2
-9 -9 7 -19 32 -12 55 15 20 23 29 23 29 1 1 -17 1 -17 11 -1 6 11 16 15 27
11 10 -4 14 -2 9 3 -12 12 -58 12 -84 0z"/>
<path d="M30300 8270 c0 -5 5 -10 11 -10 5 0 7 5 4 10 -3 6 -8 10 -11 10 -2 0
-4 -4 -4 -10z"/>
<path d="M30161 8262 c0 -7 -5 -10 -11 -7 -5 3 -10 1 -10 -4 0 -6 6 -11 13
-11 8 0 7 -4 -3 -10 -11 -7 -7 -10 18 -10 17 0 32 5 32 10 0 6 -6 10 -14 10
-8 0 -17 8 -19 18 -3 9 -5 11 -6 4z"/>
<path d="M30122 8198 c2 -6 14 -18 25 -25 20 -13 21 -13 16 5 -3 11 -14 22
-24 25 -12 3 -19 1 -17 -5z"/>
<path d="M13121 5329 c-67 -13 -176 -69 -260 -132 -66 -49 -77 -54 -95 -44
-14 8 -81 12 -211 11 -197 0 -310 -11 -1345 -134 -184 -22 -452 -54 -595 -70
-246 -29 -594 -71 -1725 -210 -622 -76 -873 -105 -1144 -130 -121 -11 -231
-23 -245 -27 -46 -11 -95 -40 -154 -92 -32 -28 -64 -51 -72 -51 -7 0 -53 10
-102 22 -102 25 -265 28 -358 7 -127 -28 -290 -135 -372 -243 -82 -108 -150
-287 -175 -456 -10 -73 -5 -362 8 -427 5 -27 0 -37 -50 -86 -159 -160 -203
-437 -120 -772 27 -110 125 -369 159 -419 27 -41 77 -57 198 -63 89 -5 98 -7
102 -27 2 -11 14 -70 25 -131 62 -318 188 -523 382 -621 75 -38 153 -54 262
-54 145 0 235 26 368 104 l47 27 128 -10 c117 -10 161 -9 308 4 85 8 154 34
198 74 l42 38 210 17 c713 58 1755 187 3125 386 512 74 686 99 1073 150 87 11
212 32 279 45 147 30 153 30 209 3 63 -31 206 -37 297 -13 243 65 453 254 525
473 58 175 68 333 46 731 -7 133 -7 196 0 200 6 4 86 17 178 30 188 25 655 92
1018 146 132 19 348 48 480 65 256 32 305 42 330 66 24 25 21 95 -25 614 -14
148 -30 248 -44 259 -24 20 -124 41 -193 41 -94 0 -364 -30 -1209 -135 -374
-47 -692 -85 -706 -85 -31 0 -30 -4 -63 165 -110 553 -374 825 -734 754z m230
-200 c140 -48 257 -241 313 -520 33 -162 33 -161 -1 -148 -20 7 -39 7 -63 0
-19 -6 -44 -12 -54 -13 -12 -2 -23 -15 -28 -33 -75 -248 -149 -426 -236 -561
-83 -129 -272 -366 -298 -372 -16 -4 -20 20 -41 238 -19 202 -23 663 -9 922 7
123 11 151 27 169 10 12 19 19 19 15 0 -4 39 22 86 59 65 50 99 69 142 80 43
10 49 14 27 14 -41 1 -139 -25 -173 -46 -15 -9 -46 -34 -68 -56 -23 -21 -44
-35 -47 -30 -2 4 -8 30 -12 58 -4 27 -14 66 -22 88 -9 21 -14 39 -12 41 63 44
147 82 224 99 42 10 194 6 226 -4z m-735 -186 c-24 -47 -44 -142 -51 -233 -7
-113 -14 -143 -30 -136 -8 3 -62 -48 -132 -121 -65 -70 -125 -133 -134 -142
-37 -37 -259 -392 -259 -414 0 -3 -15 -38 -34 -79 -43 -93 -81 -217 -150 -488
-51 -199 -64 -245 -113 -402 -10 -32 -22 -56 -28 -54 -5 2 -9 12 -7 22 1 10 3
27 4 37 1 9 5 17 8 17 4 0 7 6 7 13 0 6 6 30 11 52 52 192 72 274 72 297 0 15
4 29 9 32 4 3 14 34 21 68 16 76 13 62 32 128 9 30 18 71 21 91 2 20 7 41 11
47 3 6 0 12 -6 15 -10 3 -9 11 4 34 10 17 15 32 12 35 -2 3 19 50 47 104 28
55 57 115 64 134 7 19 25 62 40 94 17 39 21 55 11 47 -13 -11 -94 -169 -194
-381 -36 -74 -67 -120 -84 -120 -5 0 -41 -20 -81 -44 -312 -189 -671 -324
-1077 -405 -369 -73 -637 -103 -1145 -126 -75 -3 -418 11 -495 20 -67 9 -162
25 -169 29 -4 3 -33 6 -64 7 -31 1 -57 6 -57 11 0 4 -10 8 -23 8 -28 0 -166
30 -299 64 -99 26 -131 26 -121 -1 5 -12 7 -12 14 -1 7 10 11 7 15 -9 4 -13
14 -23 24 -23 10 0 22 -10 25 -21 6 -17 9 -19 16 -8 7 11 9 10 9 -3 0 -12 8
-18 24 -18 25 0 43 -16 31 -28 -3 -3 -11 0 -16 8 -8 12 -10 10 -6 -7 3 -15 0
-23 -9 -23 -7 0 -11 6 -8 14 3 8 2 16 -3 19 -4 3 -9 -6 -9 -19 -1 -14 4 -24
11 -24 25 0 44 -29 40 -60 -2 -16 0 -30 5 -30 6 0 10 -11 10 -25 0 -17 5 -25
18 -25 10 0 27 -7 38 -15 18 -14 18 -14 -3 -9 -12 3 -30 1 -40 -5 -17 -10 -16
-10 5 -11 12 0 22 -4 22 -10 0 -5 8 -10 18 -10 14 0 15 2 2 10 -13 8 -13 10 2
10 28 0 32 -21 9 -44 -16 -15 -20 -16 -16 -5 5 12 -2 20 -24 27 -33 12 -45 5
-31 -17 4 -8 15 -11 24 -8 9 4 16 2 16 -3 0 -6 -8 -10 -17 -10 -12 0 -8 -7 15
-21 35 -23 44 -36 12 -19 -16 9 -20 8 -20 -5 0 -8 -4 -15 -10 -15 -5 0 -10 -4
-10 -10 0 -5 8 -10 17 -10 15 0 14 -2 -3 -15 -18 -14 -18 -15 -1 -26 18 -10
18 -11 0 -26 -10 -8 -13 -12 -7 -9 7 3 18 -2 25 -11 12 -14 12 -16 -2 -11 -12
5 -15 1 -11 -18 2 -13 9 -27 15 -31 6 -4 8 0 4 10 -3 10 -2 17 3 17 13 0 13
-37 1 -45 -5 -3 -12 -1 -16 5 -3 5 -10 10 -15 10 -5 0 4 -13 20 -30 16 -16 33
-30 38 -30 5 0 15 -6 21 -14 6 -7 24 -16 39 -19 15 -3 37 -15 50 -27 14 -13
22 -16 23 -8 0 10 2 10 6 1 2 -7 10 -13 16 -13 6 0 24 -12 39 -27 15 -15 28
-22 28 -15 0 16 32 3 48 -20 7 -10 18 -18 24 -18 24 0 78 -34 78 -49 1 -14 2
-13 11 2 10 18 12 18 30 -2 11 -12 24 -21 30 -21 6 0 8 -9 4 -20 -4 -11 -2
-20 4 -20 6 0 11 7 11 15 0 8 7 15 15 15 8 0 15 -4 15 -9 0 -5 9 -7 20 -4 11
3 20 0 20 -6 0 -6 11 -11 24 -11 14 0 28 -5 32 -11 4 -8 9 -7 15 2 7 11 9 10
9 -4 0 -14 5 -17 20 -12 11 4 29 0 42 -9 12 -9 30 -16 40 -16 10 0 18 -5 18
-11 0 -6 -9 -9 -20 -6 -11 3 -20 1 -20 -4 0 -5 14 -8 30 -7 17 1 30 6 30 10 0
8 38 5 65 -7 10 -5 40 -9 66 -9 33 -1 45 -5 42 -14 -6 -15 -20 -16 -25 0 -3 7
-7 6 -11 -5 -7 -18 -2 -19 140 -20 34 0 60 -4 57 -9 -3 -4 2 -8 10 -8 9 0 16
5 16 10 0 6 12 10 28 9 l27 -1 -25 -8 c-14 -4 47 -6 135 -5 145 3 152 2 75 -7
-109 -12 -361 -2 -481 18 -136 23 -302 67 -421 110 -125 46 -484 226 -481 242
2 6 -3 9 -10 7 -6 -3 -30 5 -52 18 -45 25 -37 2 -95 291 -53 264 -68 321 -227
851 -102 344 -187 556 -278 695 -26 39 -45 74 -42 76 5 5 102 16 327 39 85 8
382 44 660 80 278 35 708 87 955 115 248 28 659 76 915 106 256 30 539 64 630
74 91 10 300 34 465 54 570 66 917 98 923 84 2 -4 -3 -20 -12 -35z m175 -30
c11 -12 14 -50 13 -152 -11 -1045 -11 -1034 37 -1395 21 -157 20 -165 -23
-166 -21 0 -23 8 -47 160 -43 276 -52 444 -51 992 0 443 5 533 32 565 14 17
23 16 39 -4z m2909 -452 c0 -33 44 -26 -585 -101 -344 -42 -639 -82 -862 -120
-232 -38 -238 -38 -258 1 -9 17 -15 32 -13 34 14 14 1114 154 1488 189 216 20
230 20 230 -3z m-8079 -63 c112 -104 259 -455 362 -863 92 -360 204 -901 191
-915 -7 -7 -231 119 -281 158 -25 19 -36 78 -103 551 -40 287 -45 331 -34 331
3 0 19 -13 34 -30 39 -42 62 -41 49 2 -5 18 -9 33 -9 34 0 9 -41 43 -57 48
-14 4 -23 15 -23 27 0 10 -4 19 -9 19 -5 0 -12 17 -15 38 -13 70 -58 227 -122
416 -35 104 -64 192 -64 197 0 18 58 8 81 -13z m-491 -104 c47 -9 127 -17 177
-18 51 -1 95 -5 98 -8 4 -3 19 -64 35 -134 31 -137 59 -225 108 -339 39 -91
65 -215 96 -460 31 -253 40 -345 31 -345 -11 0 -135 50 -255 103 -149 66 -330
160 -463 240 -92 56 -106 62 -110 46 -3 -10 -2 -18 2 -17 10 2 45 -14 63 -30
12 -10 14 -20 8 -36 -5 -13 -4 -29 1 -37 7 -12 9 -12 10 1 1 8 1 19 0 23 -1 5
2 6 7 3 13 -8 7 -51 -7 -49 -18 4 -13 -12 9 -32 12 -10 18 -25 16 -32 -3 -8 1
-16 8 -19 16 -6 18 -75 2 -86 -6 -4 -4 -13 5 -24 9 -11 9 -15 2 -10 -7 4 -13
3 -13 -2 0 -16 13 -22 27 -11 19 16 16 -1 -4 -23 -15 -17 -15 -19 0 -31 20
-14 26 -92 9 -109 -9 -9 -7 -19 9 -45 12 -19 19 -43 16 -53 -3 -11 -1 -20 5
-20 5 0 7 -4 3 -9 -3 -5 0 -13 6 -16 5 -4 8 -13 5 -21 -8 -20 4 -44 21 -44 9
0 13 -6 10 -14 -3 -8 1 -20 9 -26 8 -7 14 -19 14 -27 0 -9 6 -13 14 -10 8 3
20 -2 28 -11 11 -13 11 -15 -2 -8 -14 8 18 -24 141 -140 26 -24 52 -57 59 -74
7 -16 19 -30 26 -30 8 0 14 -4 14 -10 0 -5 12 -21 28 -36 34 -33 12 -22 -53
28 -27 21 -63 48 -80 61 -16 12 -83 73 -148 137 -128 124 -151 160 -162 257
-4 32 -28 148 -52 258 -25 110 -48 211 -50 225 -3 14 -12 41 -20 60 -9 19 -16
47 -15 63 0 15 -5 30 -13 33 -8 3 -39 43 -71 90 -31 46 -74 103 -95 126 -33
36 -39 40 -39 22 0 -33 46 -208 64 -242 9 -17 16 -35 16 -40 0 -15 -193 -31
-207 -18 -18 18 -34 287 -23 404 12 133 25 181 70 277 61 127 183 235 323 285
65 24 172 25 287 4z m6610 -43 c-1 -29 -11 -17 -25 29 -7 22 -6 23 9 11 9 -7
16 -25 16 -40z m7 -63 c-3 -8 -6 -5 -6 6 -1 11 2 17 5 13 3 -3 4 -12 1 -19z
m-6767 -978 c0 -5 -2 -10 -4 -10 -3 0 -8 5 -11 10 -3 6 -1 10 4 10 6 0 11 -4
11 -10z m5570 6 c0 -2 -8 -10 -17 -17 -16 -13 -17 -12 -4 4 13 16 21 21 21 13z
m-4243 -12 c-3 -3 -12 -4 -19 -1 -8 3 -5 6 6 6 11 1 17 -2 13 -5z m367 -180
c3 -8 2 -12 -4 -9 -6 3 -10 10 -10 16 0 14 7 11 14 -7z m66 5 c0 -6 7 -8 16
-5 14 5 15 4 4 -9 -7 -9 -13 -14 -14 -13 -1 2 -8 11 -15 21 -9 11 -10 17 -2
17 6 0 11 -5 11 -11z m394 -1 c-3 -4 -9 -8 -15 -8 -5 0 -9 4 -9 8 0 5 7 9 15
9 8 0 12 -4 9 -9z m-310 -13 c3 -8 11 -15 17 -15 8 0 8 4 -1 15 -7 9 -8 15 -2
15 5 0 12 -7 16 -15 7 -19 30 -19 48 -1 18 18 75 9 81 -13 2 -9 14 -17 25 -18
25 -2 26 0 11 30 -10 21 -10 22 6 2 10 -12 13 -29 10 -46 -4 -17 -1 -30 6 -35
9 -5 10 -2 6 9 -3 9 -2 19 4 23 6 3 8 13 5 21 -5 11 -1 13 17 7 12 -4 30 -7
39 -6 9 0 19 -6 22 -14 3 -8 16 -14 30 -14 13 0 27 -7 30 -16 5 -14 4 -15 -9
-4 -10 8 -15 9 -15 2 0 -16 36 -33 57 -26 12 3 10 1 -5 -8 -21 -13 -21 -15 -5
-32 10 -9 14 -16 8 -15 -22 4 -36 -1 -30 -11 3 -5 1 -10 -6 -10 -7 0 -9 10 -7
25 4 17 1 25 -9 25 -8 0 -11 -5 -7 -11 4 -7 -1 -10 -12 -7 -15 3 -19 11 -17
46 1 23 -3 45 -9 48 -8 5 -9 1 -4 -11 6 -18 6 -18 -15 1 l-22 19 12 -22 c6
-13 17 -23 24 -23 7 0 6 -4 -3 -10 -12 -8 -12 -10 -1 -10 11 0 11 -3 0 -16
-10 -13 -10 -17 1 -24 17 -10 20 -57 3 -57 -6 0 -11 5 -10 11 1 6 -7 11 -18
11 -15 0 -19 -6 -17 -24 1 -16 -2 -22 -11 -18 -17 6 -52 -19 -38 -28 6 -3 11
-1 11 4 0 12 49 15 66 3 7 -4 8 -15 3 -29 -10 -28 -19 -30 -14 -4 4 20 -24 39
-34 24 -3 -5 -10 -8 -16 -8 -23 1 -31 16 -29 49 3 32 1 34 -23 32 -15 -2 -39
-16 -55 -31 -22 -22 -28 -25 -28 -12 0 10 5 17 12 17 6 0 8 3 4 7 -4 5 -13 1
-19 -7 -7 -8 -19 -16 -27 -18 -11 -3 -11 1 3 16 17 19 17 19 -9 14 -19 -3 -25
-1 -20 7 5 7 0 11 -13 11 -28 0 -27 -16 2 -25 12 -3 17 -9 10 -11 -7 -3 -10
-13 -7 -22 4 -12 1 -11 -7 3 -7 11 -18 24 -26 28 -7 5 -11 12 -8 18 9 14 -28
10 -49 -6 -16 -12 -16 -16 -5 -28 8 -7 22 -16 32 -20 9 -3 17 -11 17 -17 0 -7
-6 -8 -19 -1 -10 6 -21 8 -24 5 -3 -3 -8 4 -12 15 -4 15 -15 21 -36 21 -16 0
-29 3 -29 8 0 10 43 37 53 34 5 -1 6 2 2 8 -3 5 1 10 10 10 9 0 13 5 10 10 -4
6 -11 7 -17 4 -7 -5 -9 -1 -5 9 3 9 2 19 -3 22 -6 4 -10 -3 -10 -13 0 -11 -8
-26 -17 -33 -14 -12 -16 -12 -9 1 4 8 0 6 -8 -4 -9 -11 -16 -25 -16 -30 -1
-12 -30 23 -30 36 0 4 4 8 9 8 5 0 21 4 36 10 22 9 24 12 13 30 -8 12 -19 18
-30 14 -10 -3 -18 -1 -18 5 0 6 3 10 8 9 4 -1 28 2 54 6 37 6 46 12 42 25 -5
14 -4 14 5 -1 8 -12 8 -24 -1 -42 -13 -30 -8 -39 16 -30 13 5 14 9 6 14 -10 6
-9 15 3 39 13 26 13 31 1 31 -21 0 -17 18 6 25 11 4 18 11 15 16 -4 5 -2 9 3
9 6 0 12 -7 16 -15z m256 5 c0 -5 -5 -10 -11 -10 -5 0 -7 5 -4 10 3 6 8 10 11
10 2 0 4 -4 4 -10z m-368 -22 c-8 -8 -9 -15 -1 -25 8 -9 8 -13 0 -13 -40 0
-33 43 9 49 2 1 -1 -4 -8 -11z m433 2 c3 -6 -1 -7 -9 -4 -18 7 -21 14 -7 14 6
0 13 -4 16 -10z m126 -17 c13 -16 12 -17 -3 -4 -10 7 -18 15 -18 17 0 8 8 3
21 -13z m-700 -7 c1 -6 1 -15 0 -19 -1 -4 7 -3 18 3 25 13 31 13 31 0 0 -5 -3
-9 -7 -8 -17 3 -41 -15 -37 -27 4 -9 -3 -12 -20 -11 -23 1 -23 2 -9 19 13 13
14 20 5 29 -9 9 -12 9 -12 -2 0 -7 -2 -11 -5 -8 -3 3 -3 12 0 20 7 17 34 20
36 4z m36 8 c-3 -3 -12 -4 -19 -1 -8 3 -5 6 6 6 11 1 17 -2 13 -5z m603 -4 c0
-6 10 -15 23 -20 12 -5 16 -9 9 -9 -7 -1 -10 -7 -6 -13 3 -7 -4 -1 -17 14 -13
14 -31 28 -39 31 -10 4 -7 6 8 6 12 1 22 -4 22 -9z m-565 -34 c-16 -25 -55
-36 -55 -17 0 5 8 7 18 4 13 -3 22 4 30 23 7 14 15 24 18 21 3 -3 -2 -17 -11
-31z m-154 1 c-10 -9 -11 -8 -5 6 3 10 9 15 12 12 3 -3 0 -11 -7 -18z m-46 -7
c3 -5 2 -10 -4 -10 -5 0 -13 5 -16 10 -3 6 -2 10 4 10 5 0 13 -4 16 -10z m859
-27 c8 -16 15 -22 16 -15 0 6 12 12 28 12 20 0 23 -3 12 -10 -8 -5 -11 -12 -7
-16 7 -8 -22 -33 -38 -33 -5 0 -1 6 9 14 19 15 19 15 -1 15 -13 0 -23 8 -26
21 -3 12 -10 18 -16 14 -12 -7 -15 8 -4 18 10 10 11 9 27 -20z m116 -15 c0 -6
-6 -5 -15 2 -8 7 -15 14 -15 16 0 2 7 1 15 -2 8 -4 15 -11 15 -16z m-800 0 c0
7 5 10 10 7 14 -9 12 -28 -6 -51 -10 -12 -14 -14 -11 -4 5 19 -19 43 -35 35
-7 -4 -4 1 6 9 16 13 22 13 28 3 6 -9 8 -9 8 1z m658 -34 c1 -24 -3 -34 -11
-31 -20 6 -13 63 9 67 0 0 1 -16 2 -36z m-738 2 c0 -3 -4 -8 -10 -11 -5 -3
-10 -1 -10 4 0 6 5 11 10 11 6 0 10 -2 10 -4z m617 -38 c-3 -7 -5 -2 -5 12 0
14 2 19 5 13 2 -7 2 -19 0 -25z m218 23 c-12 -12 -65 -26 -65 -17 0 3 15 10
33 15 43 12 42 12 32 2z m-144 -15 c5 3 9 0 9 -6 0 -15 -23 -7 -26 8 -1 7 0 8
3 2 2 -5 9 -8 14 -4z m-701 -1 c0 -3 -10 -10 -22 -15 l-23 -9 23 -7 c22 -6 29
-19 14 -28 -9 -6 -38 16 -37 29 1 18 16 35 31 35 8 0 14 -2 14 -5z m565 -15
c3 -5 1 -10 -4 -10 -6 0 -11 5 -11 10 0 6 2 10 4 10 3 0 8 -4 11 -10z m-515
-10 c0 -5 -9 -10 -21 -10 -11 0 -17 5 -14 10 3 6 13 10 21 10 8 0 14 -4 14
-10z m416 -9 c0 -14 -4 -15 -22 -7 -25 12 -24 21 3 23 12 1 19 -5 19 -16z
m204 4 c-7 -9 -15 -13 -17 -11 -7 7 7 26 19 26 6 0 6 -6 -2 -15z m-578 -17
c-6 -6 -16 -7 -22 -3 -9 6 -9 9 1 16 17 10 34 0 21 -13z m532 9 c-2 -7 -13
-13 -24 -13 -27 0 -25 14 3 19 12 2 23 5 24 6 1 0 0 -5 -3 -12z m91 4 c3 -5 2
-12 -3 -15 -5 -3 -9 1 -9 9 0 17 3 19 12 6z m30 -1 c3 -5 1 -10 -4 -10 -6 0
-11 5 -11 10 0 6 2 10 4 10 3 0 8 -4 11 -10z m130 0 c-3 -5 -12 -10 -18 -10
-7 0 -6 4 3 10 19 12 23 12 15 0z m-585 -15 c0 -8 -4 -15 -9 -15 -13 0 -22 16
-14 24 11 11 23 6 23 -9z m500 -13 c0 -15 -2 -15 -10 -2 -13 20 -13 33 0 25 6
-3 10 -14 10 -23z m-745 8 c3 -5 1 -10 -4 -10 -6 0 -11 5 -11 10 0 6 2 10 4
10 3 0 8 -4 11 -10z m582 -30 c1 -11 -3 -23 -9 -26 -7 -5 -9 -2 -5 8 3 9 0 21
-6 27 -8 8 -7 11 4 11 8 0 15 -9 16 -20z m41 7 c8 -10 6 -13 -7 -13 -10 0 -18
6 -18 13 0 7 4 13 7 13 4 0 12 -6 18 -13z m52 3 c-8 -5 -19 -10 -25 -10 -5 0
-3 5 5 10 8 5 20 10 25 10 6 0 3 -5 -5 -10z m-727 -23 c4 3 7 1 7 -5 0 -7 -3
-12 -7 -12 -12 1 -43 26 -43 35 0 5 8 1 18 -8 10 -10 22 -14 25 -10z m361 8
c-4 -8 -8 -15 -10 -15 -2 0 -4 7 -4 15 0 8 4 15 10 15 5 0 7 -7 4 -15z m73 -5
c-1 -12 -5 -16 -10 -11 -5 5 -6 14 -3 20 11 16 15 13 13 -9z m-337 6 c0 -2 -7
-7 -16 -10 -8 -3 -12 -2 -9 4 6 10 25 14 25 6z m240 -12 c0 -8 -19 -13 -24 -6
-3 5 1 9 9 9 8 0 15 -2 15 -3z m86 -18 c17 -9 19 -14 8 -24 -10 -9 -14 -7 -19
9 -4 12 -12 18 -21 15 -7 -3 -16 -2 -18 3 -7 11 25 9 50 -3z m128 -1 c-4 -8
-8 -15 -10 -15 -2 0 -4 7 -4 15 0 8 4 15 10 15 5 0 7 -7 4 -15z m-149 -25 c3
-6 -1 -7 -9 -4 -18 7 -21 14 -7 14 6 0 13 -4 16 -10z m2721 -29 c-8 -12 -46
-21 -46 -11 0 5 10 11 23 13 12 2 23 5 25 6 2 0 1 -3 -2 -8z m-76 -41 c-8 -5
-19 -10 -25 -10 -5 0 -3 5 5 10 8 5 20 10 25 10 6 0 3 -5 -5 -10z m-980 -364
c0 -2 -9 -6 -20 -9 -11 -3 -18 -1 -14 4 5 9 34 13 34 5z m-157 -43 c-7 -2 -19
-2 -25 0 -7 3 -2 5 12 5 14 0 19 -2 13 -5z m-136 -29 c-3 -3 -12 -4 -19 -1 -8
3 -5 6 6 6 11 1 17 -2 13 -5z m-72 -14 c-16 -4 -39 -8 -50 -8 l-20 -1 20 9
c11 5 34 8 50 8 l30 0 -30 -8z m-172 -27 c-7 -2 -19 -2 -25 0 -7 3 -2 5 12 5
14 0 19 -2 13 -5z m-2457 -18 c10 -8 15 -14 9 -14 -5 0 -19 6 -29 14 -11 8
-15 15 -10 15 6 0 19 -7 30 -15z m2402 8 c-10 -2 -28 -2 -40 0 -13 2 -5 4 17
4 22 1 32 -1 23 -4z m-2306 -28 c13 -18 8 -45 -8 -45 -9 0 -26 8 -39 18 -21
17 -21 19 -7 29 20 13 44 12 54 -2z"/>
<path d="M9056 2235 c-3 -8 -1 -15 4 -15 6 0 10 7 10 15 0 8 -2 15 -4 15 -2 0
-6 -7 -10 -15z"/>
<path d="M6930 3179 c0 -5 5 -7 10 -4 6 3 10 8 10 11 0 2 -4 4 -10 4 -5 0 -10
-5 -10 -11z"/>
<path d="M8939 2997 c6 -8 9 -16 6 -19 -3 -2 2 -5 10 -5 13 0 13 3 -2 19 -19
21 -31 25 -14 5z"/>
<path d="M8872 2981 c-11 -7 -11 -9 2 -14 10 -4 16 -1 16 8 0 17 -1 17 -18 6z"/>
<path d="M8816 2969 c3 -5 12 -9 21 -9 19 0 9 13 -12 16 -8 1 -13 -2 -9 -7z"/>
<path d="M9067 2973 c-7 -15 -2 -36 11 -40 14 -5 16 13 2 22 -6 4 -8 11 -5 16
4 5 4 9 1 9 -3 0 -7 -3 -9 -7z"/>
<path d="M8873 2945 c-52 -17 -47 -22 12 -12 30 6 53 13 50 16 -9 9 -29 8 -62
-4z"/>
<path d="M8867 2913 c-9 -2 -15 -9 -11 -14 3 -5 10 -6 16 -3 7 4 8 2 4 -4 -5
-8 -2 -10 8 -6 9 3 16 12 16 20 0 14 -3 15 -33 7z"/>
<path d="M8924 2903 c0 -10 -4 -28 -8 -40 -5 -15 -3 -23 4 -23 6 0 8 5 4 12
-5 8 -2 9 11 4 15 -5 16 -4 5 9 -10 12 -10 15 4 15 14 0 15 4 6 20 -13 25 -26
26 -26 3z"/>
<path d="M8960 2910 c0 -5 5 -10 11 -10 5 0 7 5 4 10 -3 6 -8 10 -11 10 -2 0
-4 -4 -4 -10z"/>
<path d="M9053 2903 c-3 -7 -9 -10 -14 -7 -5 3 -6 -3 -2 -12 5 -13 3 -16 -10
-11 -23 9 -21 -6 3 -28 19 -18 20 -17 20 5 0 20 2 21 18 9 14 -11 13 -10 -2 9
-18 21 -17 24 13 26 8 1 16 6 18 13 6 16 -38 12 -44 -4z"/>
<path d="M8797 2898 c-4 -12 -1 -16 13 -13 10 2 27 -5 39 -16 25 -23 28 -13 5
19 -12 17 -19 20 -29 12 -10 -8 -14 -8 -17 2 -3 8 -6 7 -11 -4z"/>
<path d="M8970 2860 c8 -5 20 -10 25 -10 6 0 3 5 -5 10 -8 5 -19 10 -25 10 -5
0 -3 -5 5 -10z"/>
<path d="M31504 4812 c-83 -54 -125 -93 -169 -157 -69 -100 -21 -82 103 39 90
87 149 156 134 156 -5 0 -36 -17 -68 -38z"/>
<path d="M24641 4667 c-42 -40 -159 -151 -261 -247 -255 -239 -400 -382 -1035
-1010 -751 -745 -1036 -987 -1640 -1390 -130 -87 -335 -237 -335 -246 0 -14
602 20 910 52 200 20 600 71 745 94 66 10 178 28 249 40 409 65 899 181 1341
316 510 157 982 331 1208 446 45 23 87 41 92 40 6 -2 -12 16 -40 39 -83 71
-381 368 -473 472 -274 311 -446 619 -551 987 -25 85 -111 456 -111 475 0 18
-32 -4 -99 -68z"/>
</g>
</svg>
