<!DOCTYPE svg PUBLIC "-//W3C//DTD SVG 1.1//EN" "http://www.w3.org/Graphics/SVG/1.1/DTD/svg11.dtd">
<!-- Uploaded to: SVG Repo, www.svgrepo.com, Transformed by: SVG Repo Mixer Tools -->
<svg width="800px" height="800px" viewBox="-0.91 0 20.001 20.001" xmlns="http://www.w3.org/2000/svg" fill="#F0f8ff">
<g id="SVGRepo_bgCarrier" stroke-width="0"/>
<g id="SVGRepo_tracerCarrier" stroke-linecap="round" stroke-linejoin="round"/>
<g id="SVGRepo_iconCarrier"> <g id="dumbbell-3" transform="translate(-2.822 -1.999)"> <path id="secondary" fill="#2ca9bc" d="M17.18,21H6.82a2,2,0,0,1-1.71-.94,8,8,0,1,1,13.77,0A2,2,0,0,1,17.18,21Z"/> <path id="primary" d="M7,9.61,6.05,5.43A2,2,0,0,1,8,3h8a2,2,0,0,1,2,2.43l-1,4.2" fill="none" stroke="#F0f8ff" stroke-linecap="round" stroke-linejoin="round" stroke-width="2"/> <path id="primary-2" data-name="primary" d="M9,17h6m3.88,3.06a7.92,7.92,0,0,0,1-5.33A8,8,0,1,0,5.11,20.06,2,2,0,0,0,6.82,21H17.18a2,2,0,0,0,1.7-.94Z" fill="none" stroke="#F0f8ff" stroke-linecap="round" stroke-linejoin="round" stroke-width="2"/> </g> </g>
</svg>