<!DOCTYPE svg PUBLIC "-//W3C//DTD SVG 1.1//EN" "http://www.w3.org/Graphics/SVG/1.1/DTD/svg11.dtd">
<!-- Uploaded to: SVG Repo, www.svgrepo.com, Transformed by: SVG Repo Mixer Tools -->
<svg fill="#F0f8ff" height="800px" width="800px" version="1.1" id="Layer_1" xmlns="http://www.w3.org/2000/svg" xmlns:xlink="http://www.w3.org/1999/xlink" viewBox="0 0 511.998 511.998" xml:space="preserve" stroke="#F0f8ff">
<g id="SVGRepo_bgCarrier" stroke-width="0"/>
<g id="SVGRepo_tracerCarrier" stroke-linecap="round" stroke-linejoin="round"/>
<g id="SVGRepo_iconCarrier"> <g> <g> <path d="M348.326,75.21L292.531,6.286c-5.084-6.281-13.719-7.97-20.674-4.549c-6.955-3.422-15.59-1.731-20.674,4.549 l-55.795,68.923c-3.693,4.561-4.767,10.705-2.843,16.248l30.407,87.627v113.669l-57.151,61.451 c-5.114,5.499-7.082,13.22-5.225,20.497c1.858,7.276,7.287,13.108,14.411,15.483c105.849,35.277,98.421,33.004,101.66,33.405 v66.332c0,12.193,9.884,22.076,22.076,22.076c12.193,0,22.076-9.884,22.076-22.076c0-294.794-0.4-122.087-0.4-309.798 l30.769-88.665C353.093,85.915,352.018,79.771,348.326,75.21z M276.648,377.525l-55.143-18.378 c43.381-46.646,40.469-43.314,42.019-45.688h13.125V377.525z M292.989,155.548h-42.261l-11.061-31.877 c6.761,10.657,18.656,17.736,32.211,17.736c13.498,0,25.35-7.021,32.126-17.603L292.989,155.548z M309.819,107.039 c0.121-1.238,0.186-2.492,0.186-3.762c0-21.058-17.071-38.13-38.13-38.13c-21.058,0-38.13,17.071-38.13,38.13 c0,1.319,0.067,2.623,0.198,3.907l-6.227-17.943l44.14-54.524l44.138,54.524L309.819,107.039z"/> </g> </g> </g>
</svg>